<?xml version="1.0" encoding="UTF-8" standalone="no"?>
<!-- Created with Inkscape (http://www.inkscape.org/) -->

<svg
        version="1.1"
        id="svg62"
        width="364.17807"
        height="277.8093"
        viewBox="0 0 364.17807 277.8093"
        sodipodi:docname="computer_coffee"
        inkscape:export-filename="computer_coffee.svg"
        inkscape:export-xdpi="96"
        inkscape:export-ydpi="96"
        xmlns:inkscape="http://www.inkscape.org/namespaces/inkscape"
        xmlns:sodipodi="http://sodipodi.sourceforge.net/DTD/sodipodi-0.dtd"
        xmlns="http://www.w3.org/2000/svg"
>
    <defs
            id="defs66"/>
    <sodipodi:namedview
            id="namedview64"
            pagecolor="#ffffff"
            bordercolor="#000000"
            borderopacity="0.25"
            inkscape:showpageshadow="2"
            inkscape:pageopacity="0.0"
            inkscape:pagecheckerboard="0"
            inkscape:deskcolor="#d1d1d1"
            showgrid="false"/>
    <g
            inkscape:groupmode="layer"
            inkscape:label="Image"
            id="g68"
            transform="translate(-69.522559,-57.417522)">
        <path
                style="fill:#000000;stroke-width:0.865557"
                d="m 255.05774,332.29528 c -6.18874,-1.59088 -18.84756,-5.89559 -28.13069,-9.56601 -9.28312,-3.67042 -27.46679,-10.70036 -40.40812,-15.62207 -12.94134,-4.92171 -31.24793,-12.14727 -40.68131,-16.05681 -9.43338,-3.90951 -20.26762,-8.1664 -24.07608,-9.45973 -9.47823,-3.21874 -21.62121,-8.2997 -26.832353,-11.22741 -2.380286,-1.3373 -7.162103,-3.4418 -10.626255,-4.67672 -11.795871,-4.205 -13.612442,-5.81327 -14.58558,-12.91306 -0.39108,-2.85324 -0.20162,-4.47365 0.643775,-5.50607 1.643212,-2.00673 16.829864,-9.07687 26.299181,-12.24357 4.284522,-1.43281 16.553832,-5.59139 27.265132,-9.24127 10.71131,-3.64989 25.31762,-8.35027 32.45848,-10.44528 20.03855,-5.87901 27.33202,-8.11708 28.19977,-8.65339 0.43807,-0.27074 0.79649,-1.96891 0.79649,-3.77373 0,-3.96386 4.17539,-18.77439 27.23022,-96.58852 2.53885,-8.569039 5.8741,-20.756644 7.4117,-27.083569 2.19123,-9.016452 3.51647,-12.618772 6.12977,-16.66203 1.83375,-2.837189 3.55785,-5.15852 3.83129,-5.15852 0.27344,0 3.10583,0.587927 6.29418,1.306513 3.18836,0.718587 11.05529,2.247267 17.48206,3.397059 27.01817,4.833762 32.80768,6.053409 57.55972,12.125814 48.24776,11.836602 70.05568,16.786294 83.9593,19.056047 16.43408,2.682854 29.02914,5.871181 33.07775,8.373356 4.93471,3.04983 5.71482,5.00938 5.21411,13.09725 -0.3478,5.61807 -2.38279,13.85403 -9.60587,38.87681 -5.04052,17.46175 -11.14328,39.66336 -13.5617,49.33691 -2.41842,9.67354 -5.52332,21.28852 -6.89978,25.81108 -1.37646,4.52255 -3.87837,13.67584 -5.5598,20.34065 -4.78713,18.97514 -7.51236,26.63953 -9.88738,27.80706 -1.1161,0.54868 -3.45311,2.34979 -5.19335,4.00245 -7.13251,6.77364 -32.64313,20.31959 -61.1663,32.47886 -9.99186,4.25948 -22.50722,9.92344 -27.81193,12.58655 -8.39136,4.21271 -23.062,9.32259 -26.44533,9.21107 -0.62085,-0.0204 -6.19235,-1.33883 -12.3811,-2.92972 z m 23.76131,-3.10907 c 4.02361,-1.41878 7.43175,-2.5796 7.57364,-2.5796 0.1419,0 0.2333,-1.26589 0.20312,-2.81307 -0.0544,-2.78591 -0.064,-2.79217 -0.99741,-0.64917 -0.80679,1.85227 -0.99678,1.9366 -1.31917,0.58561 -0.25854,-1.08338 -0.82788,-1.39136 -1.81567,-0.98218 -5.6469,2.33912 -12.23801,2.66891 -17.34306,0.86775 -1.96408,-0.69298 -3.57105,-0.94585 -3.57105,-0.56194 0,1.24455 1.95852,6.55207 2.82825,7.66441 1.3848,1.77113 6.66164,1.21142 14.44135,-1.53181 z m -16.81786,0.23346 c -0.32947,-0.83309 -0.81161,-2.7806 -1.07142,-4.3278 -0.26431,-1.57396 -0.99439,-2.81306 -1.65748,-2.81306 -1.45692,0 -1.46851,-0.27461 0.19462,4.60638 0.75883,2.22707 1.77426,4.04921 2.2565,4.04921 0.48622,0 0.60995,-0.67477 0.27778,-1.51473 z m -3.04842,0.37059 c 0,-1.229 -2.89201,-8.37022 -3.24626,-8.01596 -0.67467,0.67467 1.6157,8.29455 2.49318,8.29455 0.41418,0 0.75308,-0.12537 0.75308,-0.27859 z m -4.34611,-4.64039 c -0.581,-1.81712 -1.40572,-3.68076 -1.83269,-4.14143 -0.42697,-0.46068 -0.18938,1.09733 0.52798,3.46224 0.71736,2.3649 1.30849,4.46211 1.31365,4.66048 0.005,0.19835 0.24293,0.12707 0.52841,-0.1584 0.28548,-0.28548 0.0437,-2.00578 -0.53735,-3.82289 z m -3.3781,-2.17071 c -0.97648,-2.0514 -1.5594,-2.75606 -1.29537,-1.56591 0.80465,3.62712 2.40938,7.27997 2.74967,6.25909 0.17662,-0.52985 -0.47782,-2.64179 -1.4543,-4.69318 z m -1.14925,3.41106 c -0.22167,-0.59507 -0.92585,-2.54258 -1.56482,-4.3278 -0.63898,-1.78522 -1.47302,-3.24585 -1.85345,-3.24585 -0.90044,0 -0.9152,-0.0989 0.68802,4.60638 0.75884,2.22708 1.77427,4.04922 2.25651,4.04922 0.48224,0 0.69543,-0.48688 0.47374,-1.08195 z m -3.7281,-1.67523 c -0.33022,-1.04039 -1.14703,-3.08528 -1.81516,-4.5442 -1.21022,-2.64261 -1.21268,-2.63793 -0.65644,1.24246 0.63258,4.41302 0.96302,5.19336 2.19916,5.19336 0.5036,0 0.61884,-0.80019 0.27244,-1.89162 z m -3.90823,-2.70125 c -0.48553,-1.75844 -1.28022,-3.19717 -1.76599,-3.19717 -0.4893,0 -0.63816,0.77205 -0.33376,1.73112 0.31518,0.99306 0.15553,1.73112 -0.37445,1.73112 -0.50815,0 -0.92389,-0.75602 -0.92389,-1.68003 0,-1.64437 -1.45452,-3.21289 -2.24571,-2.42171 -0.94319,0.9432 1.49936,4.97469 3.72056,6.14089 1.33109,0.69886 2.50699,1.18567 2.6131,1.0818 0.10611,-0.10385 -0.20432,-1.62756 -0.68986,-3.38602 z m 46.79112,-0.43518 c -0.0114,-1.26136 -0.12922,-1.28421 -0.8523,-0.16531 -1.09547,1.69508 -1.09547,2.84092 0,2.16389 0.47605,-0.29421 0.85959,-1.19358 0.8523,-1.99858 z m -3.54019,-4.90693 c 5.04876,-2.57462 18.52763,-8.63587 29.95301,-13.46944 50.99338,-21.57305 57.69967,-24.57318 63.24607,-28.29398 5.80206,-3.89229 5.85689,-3.96522 4.06951,-5.41256 -1.97374,-1.59824 -13.17313,-4.97368 -28.79817,-8.67966 -10.03284,-2.3796 -33.01392,-9.16131 -60.1564,-17.75212 -8.09298,-2.56149 -20.94655,-6.26098 -28.56347,-8.22109 -20.37726,-5.2438 -32.83693,-9.01417 -46.13579,-13.96093 -20.0134,-7.44435 -30.81517,-11.11485 -32.72599,-11.12046 -1.00484,-0.003 -5.87362,1.32888 -10.8195,2.95959 -4.94589,1.63072 -12.61476,3.80998 -17.04193,4.84279 -4.42717,1.0328 -16.30698,4.80243 -26.39957,8.37694 -10.09259,3.57452 -25.79102,8.94068 -34.885386,11.92483 -15.40234,5.05399 -24.578882,9.11844 -24.578882,10.88645 0,1.44879 7.544723,5.13786 20.361913,9.95619 25.711045,9.66549 32.971645,12.4501 39.049115,14.97626 3.39851,1.41261 11.18854,4.32577 17.31119,6.47365 6.12265,2.14788 19.70115,7.07987 30.17441,10.95996 49.29056,18.26094 76.63385,27.8074 86.55597,30.21958 5.47423,1.33086 9.54644,0.35061 19.3839,-4.666 z m 17.4024,-20.00169 c -2.14226,-0.57402 -9.1533,-3.06472 -15.58007,-5.5349 -16.64794,-6.39873 -17.62971,-6.73853 -54.96306,-19.02335 -18.56625,-6.10937 -37.45709,-12.54505 -41.97964,-14.30152 -4.52255,-1.75647 -15.23385,-5.65065 -23.80289,-8.65375 -29.8419,-10.45835 -32.29165,-11.66572 -30.21595,-14.89202 1.11841,-1.73838 13.40184,-6.62437 28.05205,-11.1583 6.90283,-2.1363 14.39386,-4.82326 16.64671,-5.97105 l 4.09611,-2.08689 10.18563,3.74153 c 5.60211,2.05783 23.23395,7.9476 39.18189,13.08838 15.94794,5.14077 40.6813,13.39396 54.96304,18.34041 22.55904,7.81329 37.57378,12.61492 60.03583,19.19915 5.79778,1.69948 8.51547,3.57644 7.51719,5.1917 -0.88034,1.42443 -8.95004,5.30974 -21.56462,10.38272 -6.1262,2.46367 -14.25154,6.04457 -18.05632,7.95758 -9.44522,4.74897 -10.07477,4.91032 -14.5159,3.72031 z m 8.87199,-4.2554 c 2.5204,-1.02422 1.73434,-1.81344 -2.86318,-2.87466 -3.65779,-0.84432 -4.80142,-0.79153 -6.95277,0.32098 -3.01265,1.5579 -2.64982,2.6735 1.20296,3.6987 2.57334,0.68476 4.85741,0.38112 8.61299,-1.14502 z m -12.79637,-2.75453 c 1.68234,-0.80226 3.05881,-1.69336 3.05881,-1.98022 0,-0.28685 -3.01864,-1.50402 -6.70808,-2.7048 -6.24992,-2.03413 -6.87056,-2.09103 -9.08683,-0.83286 -1.3083,0.74271 -2.37944,1.59455 -2.38029,1.89297 -0.002,0.58389 7.10528,3.77024 9.95239,4.46209 0.95212,0.23136 1.81528,0.46584 1.91815,0.52106 0.10286,0.0552 1.56348,-0.55599 3.24585,-1.35824 z m 21.69615,-1.52665 c 1.65091,-0.68979 3.00166,-1.45371 3.00166,-1.69758 0,-0.24389 -1.97902,-1.03112 -4.39782,-1.74943 -4.19031,-1.24439 -4.51306,-1.22082 -6.83997,0.49954 -1.34318,0.99306 -2.93087,1.64266 -3.52816,1.44356 -0.62593,-0.20864 0.1111,-1.11996 1.73969,-2.15112 l 2.82571,-1.78912 -3.90577,-1.33082 c -3.80736,-1.2973 -3.98726,-1.27546 -7.13895,0.86617 l -3.23318,2.197 2.93445,1.2464 c 3.86481,1.64155 11.08538,3.59109 13.56538,3.66262 1.08641,0.0313 3.32604,-0.50742 4.97696,-1.19722 z m -36.73707,-4.69306 1.99992,-1.61943 -4.92902,-1.43291 c -4.63701,-1.34801 -5.06557,-1.34343 -7.23391,0.0773 l -2.30491,1.51022 3.38239,1.51943 c 4.36466,1.96067 6.61343,1.94715 9.08553,-0.0546 z m 45.91362,0.61686 c 1.84045,-0.5514 3.34627,-1.25676 3.34627,-1.56747 0,-0.31071 -1.9139,-1.05545 -4.25313,-1.65497 -3.72304,-0.95418 -4.61301,-0.90364 -7.14086,0.40552 l -2.88775,1.49556 3.46224,1.07121 c 1.90424,0.58916 3.6118,1.11206 3.7946,1.16198 0.1828,0.0499 1.83818,-0.36041 3.67863,-0.91183 z m -30.00715,-2.1872 c 1.68236,-0.80225 3.05883,-1.7458 3.05883,-2.09677 0,-0.35096 -1.31615,-1.07248 -2.92477,-1.60338 -2.51033,-0.82849 -3.36888,-0.70323 -6.05893,0.88392 -1.72377,1.01707 -3.13414,2.01803 -3.13414,2.22437 0,0.4827 3.57331,1.92402 4.94761,1.99565 0.57891,0.0302 2.42904,-0.60153 4.1114,-1.40379 z M 319.934,280.593 c 3.03842,-1.38439 2.77804,-2.01192 -1.34771,-3.24804 -1.95378,-0.58536 -4.02513,-1.24573 -4.603,-1.46747 -0.57786,-0.22174 -2.15509,0.46556 -3.50497,1.52738 l -2.45431,1.93055 2.9459,1.06519 c 3.81923,1.38098 6.24134,1.43296 8.96409,0.19239 z m 22.70671,-1.89787 c 0.13768,-0.1377 -1.85944,-0.9154 -4.43806,-1.72824 -4.50087,-1.41877 -4.79606,-1.41241 -7.38026,0.15914 l -2.69185,1.63701 2.41378,0.93591 c 4.05945,1.57396 5.75411,1.65561 8.86103,0.42697 1.64176,-0.64925 3.09767,-1.2931 3.23536,-1.43079 z m -70.64765,1.14079 c 2.40351,-1.28631 2.08391,-2.07032 -1.3502,-3.31211 -3.08028,-1.11384 -3.96891,-0.91518 -6.79577,1.51927 -1.53784,1.32435 -1.52171,1.39688 0.43277,1.94595 3.14275,0.88291 5.87887,0.8286 7.7132,-0.15311 z m 19.36871,-0.9206 c 3.7713,-2.22511 3.8614,-3.00386 0.42702,-3.69073 -1.80285,-0.36058 -3.74275,0.0262 -6.05891,1.20774 -3.87863,1.97871 -4.47762,1.32329 -1.18792,-1.29982 l 2.21907,-1.76943 -2.57674,-0.97261 c -2.22546,-0.84002 -3.06714,-0.68019 -6.17374,1.17237 -1.97834,1.17975 -3.41735,2.32463 -3.19778,2.54418 0.45985,0.45987 11.96878,4.57921 12.87037,4.60667 0.32984,0.0101 1.98522,-0.79923 3.67863,-1.79837 z m -28.57046,-2.44878 c 1.4512,-1.60356 1.41302,-1.71896 -0.97771,-2.95526 -4.4688,-2.3109 -8.25291,-2.50898 -10.5571,-0.55261 -1.13857,0.96669 -1.91758,1.8987 -1.73112,2.07112 0.5403,0.49963 8.85491,2.91611 10.37518,3.01534 0.75932,0.0496 2.06016,-0.66079 2.89075,-1.57859 z m 46.35386,-0.0246 2.15385,-1.65486 -2.42658,-0.92259 c -3.18874,-1.21235 -3.63948,-1.17842 -6.90107,0.51937 l -2.77008,1.44196 2.59668,1.11567 c 3.53971,1.52088 4.83187,1.43302 7.3472,-0.49955 z m 19.85132,0.0427 2.09731,-1.6122 -2.66583,-1.37854 c -1.46621,-0.75821 -5.64615,-2.1962 -9.28877,-3.19554 -6.29772,-1.72775 -6.73391,-1.74428 -8.88232,-0.33659 l -2.25937,1.4804 2.35622,1.23454 c 1.8911,0.99086 2.95652,1.03641 5.39743,0.23084 3.59999,-1.18809 4.79354,-0.57017 1.91741,0.99268 -1.94118,1.05482 -1.83218,1.15759 2.73893,2.58195 6.11602,1.90578 6.11297,1.90578 8.58899,0.003 z m 18.89254,0.23957 c 3.0603,-0.82014 2.3108,-1.66996 -2.43995,-2.76656 -3.33372,-0.76952 -4.8385,-0.77135 -6.26552,-0.008 -1.78214,0.95378 -1.70173,1.05959 1.57438,2.07166 4.24221,1.31054 4.69562,1.35521 7.13109,0.70253 z m -74.22176,-1.86456 c 0,-0.37342 1.24308,-1.41324 2.76241,-2.31073 l 2.76239,-1.63179 -3.27237,-1.13294 c -2.97637,-1.03043 -3.57798,-0.95843 -6.65076,0.79601 -1.8581,1.0609 -3.38137,2.15236 -3.38504,2.42543 -0.003,0.27309 1.45396,0.9055 3.23919,1.40537 4.33703,1.21436 4.54418,1.2348 4.54418,0.44865 z m 27.20195,-1.50355 c 1.79903,-1.36104 1.77944,-1.43217 -0.77254,-2.80564 -1.31337,-0.70686 -2.49749,-0.5093 -5.19335,0.86651 -3.09501,1.57949 -3.29524,1.85902 -1.76097,2.45826 2.73189,1.06699 5.91283,0.85327 7.72686,-0.51913 z m -51.53139,-1.33019 c 1.13857,-0.94819 1.91758,-1.87597 1.73112,-2.06175 -0.18646,-0.18579 -4.03928,-1.37034 -8.56182,-2.63235 -4.52255,-1.26201 -14.09967,-4.79145 -21.28249,-7.84317 -7.18282,-3.05173 -16.25133,-6.40284 -20.15225,-7.4469 -6.86529,-1.83749 -7.19475,-1.84961 -10.28029,-0.37821 l -3.1877,1.52011 3.86486,1.61423 c 12.19438,5.09324 51.81332,18.72657 54.93289,18.90304 0.47606,0.0269 1.79712,-0.72683 2.93568,-1.675 z m 87.92162,0.60961 c 1.45806,-1.06617 1.11707,-1.33597 -3.77774,-2.98897 -4.30363,-1.45336 -5.80391,-1.62408 -7.49623,-0.85302 -1.16365,0.53021 -2.11574,1.19866 -2.11574,1.48545 0,0.56268 8.21963,3.26196 10.43768,3.42768 0.74211,0.0553 2.07052,-0.42657 2.95203,-1.07114 z m 17.77044,0.44829 c 0,-0.39801 -2.36084,-1.38002 -5.24631,-2.18225 -5.07823,-1.41187 -7.42214,-1.28195 -6.41025,0.35532 1.10434,1.78688 11.65656,3.44072 11.65656,1.82693 z m -88.02944,-3.0822 3.28709,-2.0207 -4.09858,-1.3493 c -3.89356,-1.28182 -4.27449,-1.25892 -7.6149,0.45782 l -3.51632,1.80711 3.46224,1.5672 c 4.37159,1.97883 4.52316,1.97057 8.48047,-0.46213 z m 25.94521,0.48082 2.39997,-1.58252 -3.46643,-1.03856 c -2.94836,-0.88334 -3.79215,-0.82515 -5.64582,0.38942 -2.55835,1.67629 -2.76496,2.68006 -0.66466,3.22892 3.09079,0.80772 5.03903,0.54434 7.37694,-0.99726 z m 16.83738,-2.45344 c 0.45205,-1.35616 -5.46866,-2.26113 -7.54017,-1.15249 -2.26194,1.21055 -2.20393,2.1279 0.20427,3.22943 2.11809,0.96883 6.75858,-0.34498 7.3359,-2.07694 z m 31.66001,1.01794 c 0.2868,-1.45453 -8.27949,-3.9102 -9.65969,-2.7691 -0.92835,0.7675 -0.29287,1.284 3.02945,2.46224 4.51127,1.59991 6.35842,1.68539 6.63024,0.30686 z m -57.32488,-1.17626 1.98708,-1.60905 -5.07818,-1.89998 c -2.79299,-1.045 -9.18098,-3.05204 -14.19553,-4.4601 l -9.11734,-2.5601 -2.08032,2.08032 -2.08033,2.08032 4.48355,0.96154 c 3.23908,0.69467 4.97209,0.70008 6.24374,0.0195 1.54254,-0.82554 1.69255,-0.72887 1.21309,0.78181 -0.46992,1.48055 -0.0234,1.81936 3.16393,2.40069 2.04109,0.37228 4.10058,0.55625 4.57664,0.40884 3.69391,-1.14387 4.3133,-1.14257 3.23749,0.007 -0.88744,0.94805 -0.72639,1.36688 0.86556,2.25099 2.73791,1.52051 4.47931,1.40198 6.78062,-0.46151 z m 40.12629,0.46019 c 1.4611,-1.06839 1.38174,-1.22731 -1.13291,-2.26892 -2.22081,-0.91989 -3.19758,-0.91562 -5.46572,0.0239 l -2.76167,1.14392 2.54528,1.08595 c 3.31748,1.41541 4.89529,1.41892 6.81502,0.0151 z m -67.54008,-1.73548 2.51218,-2.01019 -3.91368,-1.09577 c -3.38889,-0.94883 -4.28785,-0.90227 -6.70404,0.34719 -3.15193,1.62994 -4.63606,1.17699 -1.84821,-0.56405 2.40507,-1.50199 2.29025,-2.13878 -0.56488,-3.13334 -1.87032,-0.6515 -3.0757,-0.44736 -5.62613,0.95282 -1.78522,0.98009 -3.24585,2.0721 -3.24585,2.42671 0,0.35463 2.04489,1.20578 4.54419,1.89144 2.4993,0.68569 5.90744,1.64732 7.57364,2.13696 4.35749,1.28055 4.5075,1.26092 7.27278,-0.95177 z m 44.16484,-0.16371 c 2.01207,-1.52223 1.85306,-1.71178 -2.41343,-2.87718 -2.74121,-0.74875 -3.73786,-0.65367 -5.54251,0.52878 l -2.20031,1.4417 2.51304,1.07278 c 3.32598,1.41978 5.61269,1.3701 7.64321,-0.16608 z m 13.85579,-0.39278 c 1.22115,-0.46428 2.22026,-1.19349 2.22026,-1.62049 0,-1.3088 -6.97258,-2.03522 -8.37372,-0.87239 -1.25596,1.04237 -1.22017,1.07335 3.77318,3.26672 0.088,0.0386 1.15916,-0.30956 2.38028,-0.77384 z m 15.20365,-0.79064 c 0,-0.87547 -5.98768,-2.18722 -6.70581,-1.46909 -0.57004,0.57003 3.08441,2.10714 5.19107,2.18344 0.83311,0.0302 1.51474,-0.29128 1.51474,-0.71435 z m -38.90842,-1.68723 1.96466,-1.59089 -3.75513,-0.95316 c -5.93802,-1.50722 -9.65926,1.27047 -4.09382,3.0558 3.88309,1.24567 3.69361,1.26215 5.88429,-0.51175 z m 16.13232,-1.47306 c 0.162,-0.49505 -1.366,-1.34826 -3.39558,-1.89605 -3.00476,-0.81098 -3.92001,-0.7699 -4.92783,0.22117 -1.0704,1.05262 -0.9534,1.3335 0.86557,2.07794 2.58731,1.0589 7.05848,0.81725 7.45784,-0.40306 z m 13.63066,0.55961 c 0.26283,-0.42528 -0.59056,-1.02803 -1.89643,-1.33944 -1.30587,-0.31142 -3.05594,-0.76872 -3.88904,-1.01623 -0.8331,-0.2475 -1.51473,-0.0454 -1.51473,0.44914 0,0.49453 1.26588,1.26465 2.81308,1.71138 3.75078,1.08301 3.93348,1.09096 4.48712,0.19515 z m -82.76919,-1.98876 3.06847,-1.89644 -3.69112,-1.23036 c -3.31935,-1.10645 -4.03226,-1.07656 -7.07773,0.29676 -1.86263,0.83993 -3.3866,1.78229 -3.3866,2.09416 0,0.72585 4.26116,2.41991 6.38954,2.54022 0.89592,0.0506 3.00977,-0.76131 4.69744,-1.80434 z m 43.84176,-0.13536 c 1.90731,-1.39466 1.08474,-2.03838 -3.55226,-2.77987 -2.56275,-0.40981 -3.70731,-0.20267 -4.56043,0.82528 -0.97427,1.17391 -0.84305,1.49088 0.90733,2.19173 2.9451,1.17924 5.37785,1.09918 7.20536,-0.23714 z m 15.15653,-0.53109 c 1.57701,-0.99733 1.01618,-1.60152 -2.39458,-2.57972 -1.88342,-0.54015 -3.11213,-0.42398 -4.22897,0.39983 -1.4857,1.09593 -1.45255,1.21014 0.5897,2.03157 2.77076,1.11442 4.44128,1.15549 6.03385,0.14832 z m -43.03653,-1.23871 c 2.05955,-1.56341 1.92641,-1.94448 -1.04072,-2.97882 -2.14167,-0.74659 -2.93877,-0.58935 -4.92254,0.97109 l -2.36707,1.86195 2.10946,0.58906 c 3.23661,0.90382 4.57161,0.8087 6.22087,-0.44328 z m 57.77611,0.85349 c 0,-0.19328 -1.74584,-0.94628 -3.87964,-1.67335 -4.01662,-1.3686 -6.59259,-0.37569 -2.88405,1.11166 2.02922,0.81384 6.76369,1.20702 6.76369,0.56169 z m -84.49777,-1.8241 c 3.84307,-1.60574 3.98399,-2.69387 0.44941,-3.47019 -1.86753,-0.41018 -3.58154,-0.10747 -5.62613,0.99362 -3.43423,1.84946 -3.68667,2.65683 -0.99289,3.17567 1.07113,0.2063 2.19207,0.42815 2.49098,0.49298 0.29891,0.0648 1.95429,-0.47161 3.67863,-1.19208 z m 45.06424,-0.3653 c 1.47071,-1.62511 1.40354,-1.70555 -2.2451,-2.68802 -6.46671,-1.74131 -11.0547,1.18872 -5.06159,3.23248 4.28167,1.46011 5.58016,1.36336 7.30669,-0.54446 z m 16.02144,-0.43805 c 0.86092,-1.03735 0.42564,-1.41197 -2.58143,-2.22169 -5.54501,-1.49312 -8.52395,0.41953 -3.6519,2.34471 3.38905,1.33917 5.04696,1.30646 6.23333,-0.12302 z m -42.27077,-1.25559 2.02257,-1.63779 -3.61297,-1.08247 c -2.89967,-0.86877 -4.13449,-0.86646 -6.25448,0.0117 -3.48177,1.44219 -3.33228,2.25981 0.60434,3.30536 4.67088,1.24057 5.00557,1.213 7.24054,-0.59677 z m 55.29615,0.85689 c 0,-0.9595 -4.85028,-2.73593 -5.55256,-2.03364 -1.00832,1.00832 -0.46694,1.83616 1.44115,2.20367 3.41477,0.65772 4.11141,0.62891 4.11141,-0.17003 z m -81.82477,-1.54333 c 1.68235,-0.80226 3.05883,-1.71066 3.05883,-2.01867 0,-0.30801 -1.29252,-0.95671 -2.87227,-1.44155 -2.4748,-0.75953 -3.21859,-0.6054 -5.37479,1.11389 l -2.50249,1.99542 2.12892,0.84992 c 1.17091,0.46745 2.21309,0.87461 2.31595,0.90478 0.10287,0.0302 1.5635,-0.60154 3.24585,-1.40379 z m 41.35985,-0.6118 c 0.8331,-0.63242 1.51473,-1.34687 1.51473,-1.58765 0,-0.2408 -2.94931,-1.51349 -6.55401,-2.82819 -5.41897,-1.97641 -6.92502,-2.22135 -8.69632,-1.41428 -3.04955,1.38946 -4.23131,1.25005 -2.90906,-0.34316 1.34868,-1.62506 1.18538,-1.77433 -2.71057,-2.47766 -2.28737,-0.41295 -3.42342,-0.20595 -4.23474,0.77164 -1.34191,1.61689 -1.79693,1.284 5.89346,4.31169 5.73301,2.25709 6.60695,2.38651 9.36956,1.38752 2.96204,-1.07108 5.45067,-0.66296 2.60831,0.42775 -2.78915,1.0703 -1.29579,2.32813 3.33835,2.81183 0.47605,0.0497 1.54719,-0.42707 2.38029,-1.05949 z m 18.05165,-0.959 c 0.0672,-1.55128 -6.98488,-3.1069 -9.05704,-1.99792 -1.72051,0.92079 -1.62023,1.04886 1.61828,2.06666 3.93729,1.23742 7.38361,1.20556 7.43876,-0.0687 z m 15.48879,0.53553 c 0,-0.69235 -6.3988,-2.69943 -8.6061,-2.69943 -1.98067,0 -0.76235,1.52967 1.89801,2.3831 3.58705,1.15069 6.70809,1.29787 6.70809,0.31633 z m -58.02347,-1.78032 2.13294,-1.63908 -2.99849,-0.80444 c -2.46227,-0.66059 -3.44875,-0.49076 -5.51628,0.9496 -2.30891,1.60853 -2.38071,1.80777 -0.86555,2.40192 2.77625,1.08866 5.01394,0.80831 7.24738,-0.908 z m -47.901,-1.09669 3.23501,-1.90871 -2.53636,-1.01375 c -5.14426,-2.05609 -5.99686,-2.07905 -9.0162,-0.24288 l -3.01179,1.83158 3.88025,1.57287 c 2.13414,0.86508 3.95537,1.59463 4.04717,1.62123 0.0918,0.0266 1.62266,-0.81055 3.40192,-1.86034 z m 23.22279,0.9042 c 2.89816,-1.3205 2.78127,-2.08738 -0.49209,-3.22847 -2.18618,-0.76211 -3.16936,-0.66088 -5.19336,0.53472 -2.86645,1.69327 -3.13424,2.53914 -0.98191,3.1016 2.73525,0.71478 4.4311,0.61105 6.66736,-0.40785 z m 16.75369,-2.30275 c 1.98651,-1.52843 1.92903,-1.55989 -9.61349,-5.2605 -11.57154,-3.7099 -11.62215,-3.71754 -14.54906,-2.19419 l -2.93714,1.52865 2.83442,1.16561 c 2.42659,0.99787 3.19878,0.97716 5.36676,-0.14394 3.51067,-1.81544 5.21924,-1.60704 2.70049,0.3294 l -2.08173,1.60045 3.03901,1.00296 c 2.14797,0.7089 3.72652,0.74157 5.38392,0.11143 3.60088,-1.36905 4.6233,-1.02766 2.29105,0.765 -1.97168,1.51554 -1.9991,1.64509 -0.43277,2.04426 3.39277,0.86465 6.05117,0.54919 7.99854,-0.94913 z m 39.47762,1.05074 c 2.25049,-0.86359 1.56375,-1.84213 -1.72593,-2.45927 -3.45195,-0.6476 -6.6083,0.92085 -4.51955,2.24583 1.33269,0.84538 4.33159,0.94787 6.24548,0.21344 z m 15.21809,-0.19495 c 0,-0.97029 -6.12623,-2.80246 -7.18423,-2.14859 -0.46183,0.28542 0.0894,1.0339 1.22477,1.66327 2.32169,1.28691 5.95946,1.58315 5.95946,0.48532 z m -78.91053,-1.73707 2.0193,-1.55336 -3.6019,-1.07915 c -3.14039,-0.94089 -3.89706,-0.88576 -5.90549,0.43021 l -2.30359,1.50937 2.58785,1.10335 c 3.50035,1.4924 4.82861,1.41672 7.20383,-0.41042 z m -25.89187,-1.78838 2.95979,-1.57655 -4.41668,-1.46698 c -4.26442,-1.41642 -4.53056,-1.40689 -7.72037,0.27624 -1.81703,0.95877 -3.10893,1.76629 -2.8709,1.79449 0.23803,0.0282 1.99078,0.61258 3.89502,1.2986 4.38406,1.57943 4.5919,1.57112 8.15314,-0.3258 z m 81.72777,0.35077 c -0.18709,-1.17946 -6.01827,-2.47969 -7.8798,-1.75704 -1.31565,0.51075 -1.23301,0.73754 0.65984,1.81058 2.38559,1.35239 7.43704,1.31492 7.21996,-0.0536 z m 13.55347,-0.364 c 0,-1.07803 -4.8899,-2.08962 -6.19672,-1.28194 -0.7352,0.45437 -0.54875,0.8408 0.62804,1.30163 2.37951,0.93182 5.56868,0.92054 5.56868,-0.0197 z m -78.96561,-1.2208 c 1.8901,-1.04952 1.80267,-1.14877 -2.31718,-2.63023 -3.31655,-1.19263 -4.68573,-1.32318 -6.07562,-0.57934 -2.40868,1.28909 -2.25961,2.11239 0.58605,3.23686 3.23336,1.27767 5.47072,1.26984 7.80675,-0.0272 z m 41.18176,-0.43322 c 1.35752,-1.50006 1.27837,-1.6332 -1.47292,-2.47758 -2.39323,-0.73452 -3.27355,-0.61628 -4.97669,0.6684 l -2.06916,1.56077 2.16149,0.86196 c 3.23402,1.28967 4.76894,1.14153 6.35728,-0.61355 z m -68.67999,-2.01718 3.02946,-1.86483 -2.58776,-1.07315 c -2.23838,-0.92826 -3.0564,-0.83235 -6.05892,0.71036 l -3.47116,1.7835 2.59667,1.11867 c 3.35469,1.44521 2.98582,1.48355 6.49171,-0.67455 z m 83.95929,1.0391 c 0,-1.03604 -6.65602,-2.89812 -7.81,-2.18492 -1.31963,0.81557 -0.99626,1.98525 0.66914,2.42046 2.83637,0.74123 7.14086,0.59924 7.14086,-0.23554 z m 14.71452,0.0719 c 0,-0.90247 -6.94081,-2.79403 -7.95419,-2.16772 -1.18951,0.73514 -0.7777,1.91557 0.81332,2.33134 2.73134,0.71378 7.14087,0.61274 7.14087,-0.16362 z m -39.42369,-1.10978 c 2.88461,-1.31431 2.78195,-2.08713 -0.42583,-3.20537 -2.14501,-0.74776 -3.11655,-0.62135 -5.26466,0.68499 l -2.63422,1.60196 2.4516,0.89313 c 3.25376,1.18536 3.32637,1.18567 5.87311,0.0252 z m -42.32075,-1.10127 c 1.60565,-1.18521 1.54657,-1.29679 -1.33231,-2.51579 -2.68108,-1.13526 -3.3,-1.12585 -5.62615,0.0855 l -2.61366,1.36107 2.59668,1.11568 c 3.41139,1.46574 4.94063,1.45555 6.97544,-0.0465 z m 17.77586,-0.24475 c 1.38261,-0.81673 2.51384,-1.73987 2.51384,-2.05142 0,-0.31153 -1.72848,-1.05039 -3.84105,-1.64186 -3.55959,-0.99663 -4.04931,-0.92712 -6.68353,0.94861 l -2.84251,2.02404 3.4377,1.03628 c 4.58828,1.38311 4.53602,1.38533 7.41555,-0.31565 z m 39.4849,-0.78751 c 0.35251,-1.07181 -3.73249,-2.13427 -5.53967,-1.44079 -1.60511,0.61594 -1.41085,1.78084 0.37793,2.26625 2.35625,0.6394 4.80898,0.24717 5.16174,-0.82546 z m 14.53353,0.53524 c 0.63138,-1.02161 -0.8778,-1.71495 -4.29475,-1.97311 -2.96879,-0.22429 -3.97391,1.69139 -1.16867,2.22738 3.61128,0.69002 4.91738,0.62923 5.46342,-0.25427 z m -96.2265,-1.62136 2.4511,-1.61605 -2.63431,-0.91833 c -2.0463,-0.71334 -3.41452,-0.61184 -6.12973,0.45472 -3.92819,1.54304 -4.42743,2.54166 -1.54791,3.09628 3.94519,0.75987 5.46442,0.5634 7.86085,-1.01662 z m 58.85807,0 2.4511,-1.61605 -2.87189,-1.00115 c -2.40034,-0.83677 -3.33859,-0.7498 -5.7143,0.5296 l -2.84244,1.53074 2.83044,1.02632 c 3.71839,1.34828 3.34707,1.37665 6.14709,-0.46946 z m -43.20335,-0.89082 c 1.42553,-1.5752 1.40853,-1.6804 -0.36244,-2.24248 -1.02198,-0.32436 -3.03629,-0.10175 -4.47625,0.49471 l -2.61811,1.08445 2.03275,1.12736 c 2.77498,1.53899 3.68152,1.46143 5.42405,-0.46404 z m 16.4872,-0.67148 c 3.76295,-1.79442 3.84771,-2.55834 0.36867,-3.32246 -1.81073,-0.39769 -3.80948,-0.0861 -6.11415,0.95315 -3.39761,1.5321 -3.40856,1.55259 -1.42127,2.65531 2.65684,1.47425 3.55025,1.4386 7.16675,-0.286 z m 41.49265,0.72834 c 0.55957,-0.9054 -5.51224,-2.85283 -6.66787,-2.13861 -0.99619,0.61569 2.65192,2.79423 4.75286,2.83824 0.80502,0.0169 1.66676,-0.29797 1.91501,-0.69963 z m -83.03951,-1.5939 c 1.68235,-0.80226 3.05882,-1.72269 3.05882,-2.04541 0,-0.32273 -2.05703,-1.23378 -4.5712,-2.02458 -3.65133,-1.14849 -5.13184,-1.24239 -7.35726,-0.4666 -1.53233,0.53418 -2.78606,1.27939 -2.78606,1.65605 0,0.63994 6.61242,4.20105 7.97707,4.29605 0.34089,0.0237 1.99628,-0.61325 3.67863,-1.41551 z m 60.17571,-0.23469 2.15384,-1.65484 -2.57761,-0.98001 c -2.70344,-1.02786 -7.80466,-0.50921 -8.66376,0.88085 -0.46089,0.74573 4.04216,3.23727 6.06813,3.35749 0.47605,0.0282 1.83478,-0.69333 3.0194,-1.60349 z m 37.22913,0.93598 c 0,-0.91605 -5.05454,-2.02729 -6.14783,-1.35159 -1.80382,1.11482 -0.53788,2.10895 2.68558,2.10895 1.90424,0 3.46225,-0.34081 3.46225,-0.75736 z m -79.17452,-4.05234 c -2.44102,-1.00605 -3.5319,-0.86522 -8.24702,1.06467 -0.85609,0.3504 -0.11901,0.89183 2.1639,1.58951 2.8939,0.88441 3.88849,0.84043 6.05892,-0.26791 l 2.59668,-1.32604 z m 16.83653,0.67441 2.14623,-1.35837 -2.47146,-0.82382 c -1.86741,-0.62247 -3.23422,-0.46008 -5.59239,0.66446 -2.97104,1.41679 -3.04075,1.54691 -1.45129,2.70915 1.79703,1.31402 3.96384,0.96369 7.36891,-1.19142 z m 52.60044,1.85861 c 1.07113,-0.28704 1.94751,-0.82263 1.94751,-1.19018 0,-0.94097 -5.53647,-1.87265 -7.24107,-1.21854 -2.00858,0.77077 -1.75096,1.90352 0.53298,2.34343 1.07113,0.2063 2.14225,0.42282 2.38029,0.48116 0.23803,0.0584 1.30916,-0.12881 2.38029,-0.41587 z m -13.75914,-0.73508 c -0.22829,-0.22831 -3.15295,-1.54409 -6.49924,-2.92399 -4.71623,-1.94482 -6.45005,-2.30414 -7.71164,-1.59813 -1.39414,0.78021 -0.82427,1.18974 3.9747,2.85642 4.98651,1.7318 11.33543,2.76493 10.23618,1.6657 z M 160.14978,233.907 c 1.49922,-0.52262 2.72584,-1.25619 2.72584,-1.63016 0,-1.0871 -3.78227,-1.77359 -4.70236,-0.85349 -0.46047,0.46047 -1.63569,0.82482 -2.61161,0.80968 -1.69263,-0.0263 -1.70185,-0.0825 -0.19993,-1.22105 1.5057,-1.14139 1.49565,-1.21853 -0.22998,-1.76623 -0.99245,-0.31499 -3.21968,-0.10563 -4.94941,0.46522 -2.83203,0.93466 -2.98141,1.13013 -1.50114,1.9645 1.65307,0.93179 7.25346,3.07296 8.22274,3.14378 0.286,0.0208 1.74664,-0.38961 3.24585,-0.91225 z m 16.97822,-0.5084 c 1.68235,-0.80227 3.05883,-1.7338 3.05883,-2.07007 0,-1.38225 -4.50798,-1.61259 -7.45567,-0.38096 -3.7125,1.55117 -3.79661,1.56144 -3.79661,0.46392 0,-0.46698 0.97376,-1.09346 2.1639,-1.39217 1.19014,-0.29871 2.1639,-0.88296 2.1639,-1.29835 0,-1.52701 -4.01081,-1.69788 -7.32734,-0.31215 l -3.41221,1.42572 4.28783,1.95169 c 3.56284,1.6217 5.23388,2.33125 7.07152,3.00268 0.10286,0.0376 1.5635,-0.58806 3.24585,-1.39031 z m 23.61586,0.91309 c 2.7515,-0.73737 2.41688,-1.8278 -0.86556,-2.82054 -1.54718,-0.46794 -4.56582,-1.40506 -6.70808,-2.08249 -3.57983,-1.13203 -4.02812,-1.10314 -5.53986,0.35708 -1.61305,1.55804 -1.60467,1.60377 0.43277,2.36409 1.22634,0.45764 2.92479,0.45601 4.14518,-0.005 1.13716,-0.42862 2.30567,-0.52032 2.59668,-0.20379 0.29103,0.31652 -0.002,0.76407 -0.65075,0.99455 -0.99615,0.3538 -0.99615,0.53547 0,1.16659 1.38176,0.87542 3.85551,0.9612 6.58962,0.22848 z m 29.57292,-0.66543 c 0.83237,-1.00293 -0.77799,-1.80743 -9.37369,-4.68285 -8.44479,-2.82494 -10.55556,-3.2588 -11.32779,-2.32832 -1.39186,1.67709 0.35947,2.45093 4.0008,1.76782 2.59878,-0.48753 2.98516,-0.34792 2.75691,0.99616 -0.22236,1.30937 0.50744,1.63342 4.49512,1.99594 3.33907,0.30354 4.39005,0.6712 3.5197,1.23126 -1.02609,0.66025 -0.95117,0.91192 0.43278,1.45389 2.61538,1.02419 4.4032,0.88305 5.49617,-0.4339 z m -22.07748,-2.99025 c 0.79394,-1.28465 -3.31853,-2.63813 -5.05802,-1.66466 -1.26713,0.70912 -1.33859,1.01705 -0.37737,1.62596 1.5293,0.96877 4.84597,0.99238 5.43539,0.0386 z m -21.77615,-1.97404 c 1.67068,-0.89412 1.34617,-1.1588 -3.62971,-2.96053 -4.3438,-1.57285 -5.8855,-1.78675 -7.51775,-1.04305 -3.85816,1.7579 -2.56162,2.66629 3.57279,2.50321 1.42818,-0.038 2.10981,0.14799 1.51473,0.4132 -0.59506,0.26522 -1.08194,0.83927 -1.08194,1.27566 0,1.11854 4.94346,0.98807 7.14188,-0.18849 z m -21.43625,-1.53399 c 3.44628,-1.5205 3.44736,-1.52251 1.11804,-2.10714 -2.8921,-0.72587 -10.09505,1.87309 -8.31634,3.00068 1.64319,1.04168 3.26962,0.83979 7.1983,-0.89354 z m 36.30907,0.87711 c 0.65068,-1.05281 -3.56369,-2.02715 -5.75704,-1.33101 -1.40078,0.44459 -1.52132,0.72106 -0.57556,1.32005 1.56533,0.9914 5.72221,0.9986 6.3326,0.0109 z m -8.43848,-1.91258 c 2.41915,-0.94785 2.42258,-0.9601 0.47814,-1.70729 -2.14112,-0.82277 -7.12989,-0.13786 -7.12989,0.97886 0,0.38345 0.87638,0.86595 1.94751,1.07227 1.07113,0.20631 2.01954,0.42815 2.10755,0.49298 0.088,0.0648 1.25654,-0.31174 2.59669,-0.83682 z m 15.85281,-0.65034 c 0,-1.32841 -12.77,-4.65933 -14.38908,-3.75324 -1.17923,0.65993 -0.46055,1.16226 3.64715,2.54922 5.43552,1.83529 10.74193,2.43006 10.74193,1.20402 z m -36.11168,-1.34956 c 1.37804,-1.04545 1.39423,-1.22445 0.15369,-1.70049 -0.76257,-0.29261 -2.1899,-0.10206 -3.17184,0.42345 -1.43259,0.7667 -1.54846,1.10552 -0.58647,1.71477 1.54989,0.98157 1.76884,0.95498 3.60462,-0.43773 z m 13.84835,-0.63672 1.85854,-0.99466 -1.97991,-0.73241 c -2.49401,-0.92259 -6.23315,0.74219 -4.3482,1.93595 1.58769,1.00551 2.2591,0.97413 4.46957,-0.20888 z m -5.86736,-2.46758 c 0.29421,-0.47605 -0.24406,-0.86556 -1.19618,-0.86556 -0.95212,0 -1.97184,0.38951 -2.26607,0.86556 -0.29422,0.47606 0.24407,0.86556 1.19618,0.86556 0.95212,0 1.97185,-0.3895 2.26607,-0.86556 z m 12.55061,-0.76461 c 0,-0.9194 -3.46743,-1.93103 -4.478,-1.30645 -1.57079,0.9708 -0.57132,2.07106 1.88132,2.07106 1.42818,0 2.59668,-0.34408 2.59668,-0.76461 z m -6.49169,-1.83207 c 0.30339,-0.4909 -0.4238,-0.86555 -1.68003,-0.86555 -1.21825,0 -2.21499,0.3895 -2.21499,0.86555 0,0.47606 0.75601,0.86556 1.68003,0.86556 0.92402,0 1.92076,-0.3895 2.21499,-0.86556 z m 4.76057,69.32001 c -2.61831,-0.85954 -9.62935,-3.51195 -15.58007,-5.89426 -5.95072,-2.38231 -13.98792,-5.37538 -17.86042,-6.65126 -6.93664,-2.28545 -10.93708,-5.04886 -9.34098,-6.45252 0.441,-0.38783 5.08634,-2.17205 10.32297,-3.96493 5.23664,-1.79287 11.56015,-4.38762 14.05225,-5.76609 5.35404,-2.96153 6.61592,-3.04424 12.58534,-0.82489 20.69719,7.69489 27.26257,10.25189 28.75825,11.20041 l 1.73112,1.09783 -1.73112,-0.6312 c -12.26089,-4.47059 -33.8805,-11.61735 -35.14356,-11.61735 -0.89754,0 -5.43197,1.69814 -10.07651,3.77362 -4.64455,2.0755 -10.5869,4.46039 -13.20522,5.29977 -2.61833,0.83937 -5.09746,1.8346 -5.5092,2.21162 -1.06242,0.97285 2.93376,2.84148 12.43367,5.81402 4.52256,1.41511 12.09562,4.22446 16.82903,6.24299 4.7334,2.01853 11.48676,4.25748 15.00747,4.97546 7.41547,1.51223 7.18306,1.58206 22.55347,-6.77696 l 8.94806,-4.86631 -4.82604,-2.00028 c -5.60963,-2.32506 -5.79246,-3.10557 -0.39045,-1.66691 3.68674,0.98187 6.79546,3.00296 6.79546,4.41797 0,1.38673 -26.03027,13.73654 -28.85212,13.68862 -1.50744,-0.0256 -4.88308,-0.74982 -7.5014,-1.60935 z m -6.92447,-10.89472 c -0.61174,-0.73709 -0.9175,-1.53492 -0.67947,-1.77296 0.23803,-0.23802 0.93329,0.17031 1.54502,0.90741 0.61174,0.73709 0.91749,1.53492 0.67947,1.77294 -0.23803,0.23803 -0.9333,-0.17029 -1.54502,-0.90739 z m 1.78883,-3.08717 c -1.5555,-1.9356 -2.64128,-3.70616 -2.41285,-3.93459 0.22843,-0.22843 1.67774,1.1786 3.2207,3.12674 1.54294,1.94814 2.62872,3.7187 2.41284,3.9346 -0.2159,0.21589 -1.66521,-1.19115 -3.22069,-3.12675 z m 3.98157,1.21178 c -0.31738,-0.31736 -0.57705,-0.97951 -0.57705,-1.47145 0,-0.54236 0.40315,-0.49125 1.02425,0.12983 0.56334,0.56336 0.82301,1.2255 0.57703,1.47146 -0.24595,0.24596 -0.70687,0.18754 -1.02423,-0.12984 z m -19.04232,-1.73111 c -0.31737,-0.31737 -0.57704,-0.97952 -0.57704,-1.47146 0,-0.54235 0.40315,-0.49125 1.02424,0.12983 0.56334,0.56335 0.823,1.2255 0.57705,1.47146 -0.24597,0.24596 -0.70688,0.18754 -1.02425,-0.12983 z m 2.01964,-1.58686 c -1.11455,-1.18639 -1.83171,-2.35182 -1.5937,-2.58985 0.23804,-0.23803 1.3447,0.53791 2.45926,1.72429 1.11456,1.18638 1.83171,2.35182 1.59369,2.58985 -0.23804,0.23803 -1.3447,-0.5379 -2.45925,-1.72429 z m 4.76058,0.43278 c -0.86694,-0.95795 -1.3815,-1.93649 -1.14347,-2.17451 0.23803,-0.23803 1.1421,0.351 2.00902,1.30895 0.86694,0.95795 1.38149,1.93649 1.14348,2.17451 -0.23804,0.23803 -1.1421,-0.351 -2.00903,-1.30895 z m 2.59668,0 c -0.86694,-0.95795 -1.3815,-1.93649 -1.14347,-2.17451 0.23803,-0.23803 1.14209,0.351 2.00902,1.30895 0.86694,0.95795 1.3815,1.93649 1.14347,2.17451 -0.23803,0.23803 -1.14209,-0.351 -2.00902,-1.30895 z m 8.22281,-2.1639 c -0.61173,-0.73709 -0.91749,-1.53493 -0.67946,-1.77295 0.23802,-0.23803 0.93329,0.17029 1.54502,0.90739 0.61174,0.73709 0.91749,1.53492 0.67947,1.77296 -0.23803,0.23802 -0.93329,-0.1703 -1.54503,-0.9074 z m -3.89501,-1.29834 c -0.86694,-0.95795 -1.3815,-1.93648 -1.14347,-2.17452 0.23803,-0.23801 1.14209,0.35102 2.00902,1.30896 0.86694,0.95795 1.3815,1.93648 1.14347,2.17451 -0.23803,0.23803 -1.14209,-0.351 -2.00902,-1.30895 z m -8.22282,-1.29835 c -0.61174,-0.73709 -0.9175,-1.53492 -0.67947,-1.77293 0.23804,-0.23804 0.93329,0.17029 1.54503,0.90738 0.61173,0.73709 0.91749,1.53492 0.67946,1.77296 -0.23802,0.23802 -0.93329,-0.17031 -1.54502,-0.90741 z m 3.02945,-1.29833 c -1.35876,-1.41824 -2.27573,-2.77337 -2.03769,-3.0114 0.23803,-0.23804 1.54449,0.72759 2.90326,2.14584 1.35876,1.41825 2.27573,2.77338 2.0377,3.0114 -0.23803,0.23803 -1.54451,-0.7276 -2.90327,-2.14584 z m 4.3326,-1.72581 c -0.86429,-0.95503 -1.16925,-1.73642 -0.6777,-1.73642 1.08908,0 3.24792,2.47408 2.66632,3.05568 -0.22944,0.22944 -1.12432,-0.36423 -1.98862,-1.31926 z m -3.32278,-0.58236 c -0.31736,-0.31736 -0.57703,-0.97952 -0.57703,-1.47144 0,-0.54236 0.40315,-0.49126 1.02423,0.12983 0.56335,0.56334 0.82302,1.22549 0.57705,1.47145 -0.24597,0.24597 -0.70687,0.18755 -1.02425,-0.12984 z m -60.73344,-3.75074 c -1.84237,-1.88676 -3.155,-3.62522 -2.91697,-3.86325 0.23802,-0.23803 1.94017,1.11092 3.78253,2.99768 1.84236,1.88676 3.15501,3.62522 2.91698,3.86325 -0.23804,0.23803 -1.94017,-1.11093 -3.78254,-2.99768 z m 2.1639,-2.1639 c -2.56254,-2.59477 -4.46439,-4.91251 -4.22637,-5.15054 0.23803,-0.23803 2.5294,1.69021 5.09192,4.28497 2.56254,2.59477 4.46441,4.91251 4.22637,5.15053 -0.23802,0.23804 -2.52939,-1.6902 -5.09192,-4.28496 z m -11.72234,-3.6581 c -2.77493,-3.22469 -5.81977,-6.73944 -6.76631,-7.81058 -0.94654,-1.07112 -1.36095,-1.94516 -0.92094,-1.94232 1.00205,0.007 13.65965,14.68888 13.12453,15.224 -0.21558,0.21558 -2.66236,-2.24641 -5.43728,-5.4711 z m 0.18154,4.37939 c -0.31737,-0.31737 -0.57704,-0.97952 -0.57704,-1.47145 0,-0.54236 0.40316,-0.49126 1.02424,0.12984 0.56334,0.56333 0.82301,1.22548 0.57705,1.47144 -0.24597,0.24598 -0.70688,0.18755 -1.02425,-0.12983 z m 15.43582,-2.01964 c -0.86694,-0.95794 -1.3815,-1.93648 -1.14347,-2.1745 0.23803,-0.23804 1.14209,0.35099 2.00902,1.30895 0.86694,0.95794 1.3815,1.93648 1.14348,2.1745 -0.23803,0.23804 -1.14209,-0.35099 -2.00903,-1.30895 z m -22.50456,-1.73112 c -1.35876,-1.41824 -2.27572,-2.77337 -2.03769,-3.0114 0.23803,-0.23803 1.54449,0.7276 2.90325,2.14584 1.35877,1.41825 2.27573,2.77338 2.03769,3.0114 -0.23801,0.23804 -1.54449,-0.72759 -2.90325,-2.14584 z m 30.72738,1.29834 c -0.61174,-0.73709 -0.9175,-1.53492 -0.67947,-1.77295 0.23803,-0.23802 0.93329,0.17031 1.54503,0.9074 0.61172,0.73709 0.91749,1.53492 0.67946,1.77295 -0.23803,0.23802 -0.93329,-0.1703 -1.54502,-0.9074 z m -27.7762,-2.82209 c -5.38937,-6.03956 -6.22905,-7.13181 -5.48234,-7.13142 0.97744,5.2e-4 8.49201,8.60899 7.97037,9.13063 -0.20463,0.20462 -1.32425,-0.69503 -2.48803,-1.99921 z m 5.27164,-2.37126 c -1.60111,-1.65194 -2.71638,-3.19828 -2.47835,-3.43631 0.23803,-0.23803 1.74279,0.91881 3.34391,2.57075 1.60112,1.65194 2.71638,3.19827 2.47836,3.4363 -0.23804,0.23803 -1.74279,-0.91881 -3.34392,-2.57074 z m 8.65559,-0.86556 c -1.11455,-1.18639 -1.83171,-2.35182 -1.59367,-2.58985 0.23803,-0.23804 1.34468,0.5379 2.45924,1.72429 1.11455,1.18639 1.83171,2.35182 1.59368,2.58985 -0.23802,0.23802 -1.34468,-0.53791 -2.45925,-1.72429 z m 4.3278,0 c -1.11455,-1.18639 -1.83171,-2.35182 -1.59368,-2.58985 0.23804,-0.23804 1.3447,0.5379 2.45925,1.72429 1.11455,1.18639 1.83171,2.35182 1.59368,2.58985 -0.23802,0.23802 -1.34469,-0.53791 -2.45925,-1.72429 z m 4.76058,-4.76059 c -3.28006,-3.3054 -5.76901,-6.20456 -5.53097,-6.44259 0.23803,-0.23802 3.11647,2.27164 6.39654,5.57704 3.28006,3.30539 5.76901,6.20457 5.53098,6.44259 -0.23803,0.23803 -3.11647,-2.27163 -6.39655,-5.57704 z m -2.59668,2.59668 c -1.35875,-1.41823 -2.27572,-2.77336 -2.03769,-3.0114 0.23803,-0.23803 1.5445,0.7276 2.90326,2.14585 1.35875,1.41825 2.27573,2.77337 2.03769,3.0114 -0.23803,0.23803 -1.54449,-0.72759 -2.90326,-2.14585 z m -15.14729,-1.29833 c -1.60111,-1.65194 -2.71638,-3.19828 -2.47835,-3.43631 0.23803,-0.23803 1.74279,0.91881 3.34391,2.57075 1.60112,1.65194 2.71638,3.19827 2.47836,3.43631 -0.23804,0.23802 -1.74279,-0.91882 -3.34392,-2.57075 z m 19.60074,-3.58789 c -3.73846,-3.56109 -6.54734,-6.72458 -6.24192,-7.02999 0.30541,-0.30541 3.54147,2.4309 7.19124,6.08066 3.64979,3.64979 6.45864,6.81328 6.24193,7.03 -0.21672,0.21671 -3.45278,-2.51958 -7.19125,-6.08067 z m -25.65965,0.99121 c -1.11809,-1.19014 -1.64338,-2.1639 -1.16732,-2.1639 0.47605,0 1.78035,0.97376 2.89843,2.1639 1.11808,1.19014 1.64338,2.1639 1.16732,2.1639 -0.47606,0 -1.78036,-0.97376 -2.89843,-2.1639 z m 7.79003,-1.73112 c -1.60112,-1.65194 -2.71637,-3.19827 -2.47836,-3.43631 0.23804,-0.23803 1.7428,0.91881 3.34392,2.57075 1.60112,1.65194 2.71638,3.19827 2.47836,3.43631 -0.23804,0.23802 -1.7428,-0.91882 -3.34392,-2.57075 z m 5.19336,0.86556 c -1.11456,-1.18639 -1.83172,-2.35182 -1.59368,-2.58985 0.23802,-0.23804 1.34468,0.5379 2.45924,1.72429 1.11456,1.18638 1.83172,2.35182 1.59368,2.58985 -0.23803,0.23802 -1.34469,-0.5379 -2.45924,-1.72429 z m 1.73111,-2.59669 c -1.11807,-1.19014 -1.64337,-2.16389 -1.16731,-2.16389 0.47607,0 1.78035,0.97375 2.89844,2.16389 1.11809,1.19015 1.64337,2.1639 1.16732,2.1639 -0.47606,0 -1.78036,-0.97375 -2.89845,-2.1639 z m 172.24641,79.58042 c 0,-0.68599 -0.38951,-1.24725 -0.86557,-1.24725 -0.47605,0 -0.86556,0.80199 -0.86556,1.78221 0,0.9802 0.38951,1.54147 0.86556,1.24724 0.47606,-0.29422 0.86557,-1.09621 0.86557,-1.7822 z m -58.85807,1.00926 c 0,-0.1871 -0.58426,-0.56438 -1.29835,-0.8384 -0.71408,-0.27403 -1.29833,-0.12094 -1.29833,0.34016 0,0.46113 0.58425,0.83841 1.29833,0.83841 0.71409,0 1.29835,-0.15308 1.29835,-0.34017 z m -3.46224,-1.39095 c 0,-0.47606 -0.3895,-0.86556 -0.86556,-0.86556 -0.47606,0 -0.86556,0.3895 -0.86556,0.86556 0,0.47605 0.3895,0.86556 0.86556,0.86556 0.47606,0 0.86556,-0.38951 0.86556,-0.86556 z m 71.45963,-0.40526 c 0.92409,-0.69894 1.26774,-1.28319 0.76366,-1.29834 -0.50409,-0.0152 -1.67259,0.54434 -2.59668,1.24329 -0.9241,0.69894 -1.26774,1.2832 -0.76366,1.29834 0.50409,0.0152 1.67259,-0.54434 2.59668,-1.24329 z m -75.78743,-1.32586 c -0.68651,-0.42429 -1.44295,-0.57668 -1.68099,-0.33865 -0.23802,0.23802 0.12893,0.77992 0.81543,1.20421 0.68651,0.42429 1.44295,0.57667 1.68099,0.33865 0.23802,-0.23803 -0.12893,-0.77992 -0.81543,-1.20421 z m 8.81428,-0.18754 c -0.62109,-0.6211 -1.02424,-0.6722 -1.02424,-0.12984 0,1.15534 1.02362,2.17896 1.60129,1.60129 0.24596,-0.24595 -0.0137,-0.90811 -0.57705,-1.47145 z m 63.02718,0.18754 c 0,-0.47606 -0.3895,-0.86556 -0.86556,-0.86556 -0.47606,0 -0.86556,0.3895 -0.86556,0.86556 0,0.47606 0.3895,0.86556 0.86556,0.86556 0.47606,0 0.86556,-0.3895 0.86556,-0.86556 z m -75.3037,-0.86556 c 0,-0.47606 -0.3895,-0.86556 -0.86556,-0.86556 -0.47606,0 -0.86556,0.3895 -0.86556,0.86556 0,0.47606 0.3895,0.86556 0.86556,0.86556 0.47606,0 0.86556,-0.3895 0.86556,-0.86556 z m 9.52117,0 c 0,-0.47606 -0.38951,-0.86556 -0.86557,-0.86556 -0.47606,0 -0.86556,0.3895 -0.86556,0.86556 0,0.47606 0.3895,0.86556 0.86556,0.86556 0.47606,0 0.86557,-0.3895 0.86557,-0.86556 z m 68.37921,0 c 0,-0.47606 -0.3895,-0.86556 -0.86556,-0.86556 -0.47606,0 -0.86556,0.3895 -0.86556,0.86556 0,0.47606 0.3895,0.86556 0.86556,0.86556 0.47606,0 0.86556,-0.3895 0.86556,-0.86556 z m -81.36262,-0.86556 c 0,-0.47607 -0.41249,-0.86556 -0.91664,-0.86556 -0.50415,0 -0.67592,0.38949 -0.38169,0.86556 0.29421,0.47606 0.70671,0.86556 0.91664,0.86556 0.20993,0 0.38169,-0.3895 0.38169,-0.86556 z m 6.92448,-0.77295 c 0,-0.42514 -0.58425,-0.99715 -1.29834,-1.27118 -1.31935,-0.50628 -1.77265,0.41573 -0.72129,1.46708 0.8272,0.82722 2.01963,0.71154 2.01963,-0.1959 z m 84.39208,-0.0926 c 0.29422,-0.47606 0.14543,-0.86556 -0.33063,-0.86556 -0.47605,0 -1.10627,0.3895 -1.40049,0.86556 -0.29423,0.47606 -0.14545,0.86556 0.33061,0.86556 0.47607,0 1.10628,-0.3895 1.40051,-0.86556 z m -95.21158,-0.86556 c -0.29422,-0.47606 -0.92444,-0.86556 -1.4005,-0.86556 -0.47606,0 -0.62484,0.3895 -0.33061,0.86556 0.29422,0.47606 0.92444,0.86556 1.40049,0.86556 0.47607,0 0.62484,-0.3895 0.33062,-0.86556 z m 6.4917,-0.86556 c 0,-0.47606 -0.3895,-0.86557 -0.86556,-0.86557 -0.47606,0 -0.86556,0.38951 -0.86556,0.86557 0,0.47606 0.3895,0.86556 0.86556,0.86556 0.47606,0 0.86556,-0.3895 0.86556,-0.86556 z m 91.73608,0.21639 c -0.007,-0.35704 -0.39082,-1.23342 -0.8523,-1.94751 -0.6785,-1.04989 -0.84159,-0.92566 -0.85232,0.64917 -0.007,1.07113 0.37626,1.94751 0.85232,1.94751 0.47605,0 0.85959,-0.29212 0.8523,-0.64917 z m -95.19832,-1.08196 c 0,-0.47605 -0.41249,-0.86555 -0.91664,-0.86555 -0.50416,0 -0.67591,0.3895 -0.3817,0.86555 0.29422,0.47607 0.70671,0.86557 0.91665,0.86557 0.20993,0 0.38169,-0.3895 0.38169,-0.86557 z m 91.74933,0 c 0,-0.47605 -0.17176,-0.86555 -0.38169,-0.86555 -0.20993,0 -0.62242,0.3895 -0.91664,0.86555 -0.29423,0.47607 -0.12247,0.86557 0.38168,0.86557 0.50416,0 0.91665,-0.3895 0.91665,-0.86557 z m 6.05892,-1.7822 c 0,-0.92401 -0.3895,-1.68003 -0.86555,-1.68003 -0.47607,0 -0.86556,0.99674 -0.86556,2.21499 0,1.25623 0.37464,1.98343 0.86556,1.68003 0.47605,-0.29423 0.86555,-1.29097 0.86555,-2.21499 z m -90.88377,0.91665 c 0,-0.47606 -0.68162,-0.8596 -1.51472,-0.85231 -1.2945,0.0114 -1.32596,0.13525 -0.21641,0.85231 1.6335,1.05564 1.73113,1.05564 1.73113,0 z m -10.81949,-0.86556 c -0.29422,-0.47606 -0.90147,-0.86557 -1.34943,-0.86557 -0.44796,0 -0.81448,0.38951 -0.81448,0.86557 0,0.47605 0.60724,0.86556 1.34943,0.86556 0.74218,0 1.10869,-0.38951 0.81448,-0.86556 z m 104.52882,0.34816 c 0.69342,-0.69341 -0.21412,-2.94484 -1.18705,-2.94484 -0.42511,0 -0.77294,0.77901 -0.77294,1.73111 0,1.68715 0.91806,2.25566 1.95999,1.21373 z m -98.03713,-1.21373 c 0,-0.47605 -0.3895,-0.86555 -0.86556,-0.86555 -0.47605,0 -0.86556,0.3895 -0.86556,0.86555 0,0.47607 0.38951,0.86557 0.86556,0.86557 0.47606,0 0.86556,-0.3895 0.86556,-0.86557 z m 88.71987,0 c 0.29423,-0.47605 0.12246,-0.86555 -0.38169,-0.86555 -0.50415,0 -0.91664,0.3895 -0.91664,0.86555 0,0.47607 0.17175,0.86557 0.38169,0.86557 0.20993,0 0.62242,-0.3895 0.91664,-0.86557 z m -99.10659,-0.38166 c 0,-0.20994 -0.3895,-0.62243 -0.86555,-0.91665 -0.47606,-0.29422 -0.86556,-0.12246 -0.86556,0.3817 0,0.50415 0.3895,0.91663 0.86556,0.91663 0.47605,0 0.86555,-0.17175 0.86555,-0.38168 z m 6.92448,-0.48387 c 0,-0.47606 -0.41249,-0.86556 -0.91664,-0.86556 -0.50415,0 -0.67592,0.3895 -0.38169,0.86556 0.29422,0.47606 0.7067,0.86555 0.91664,0.86555 0.20992,0 0.38169,-0.38949 0.38169,-0.86555 z m 103.59288,-1.02785 c -0.2763,-0.69048 -0.48141,-0.48539 -0.52293,0.52294 -0.0376,0.91244 0.167,1.42366 0.45461,1.13605 0.28761,-0.28762 0.31836,-1.03417 0.0683,-1.65899 z m -114.41238,0.16229 c -0.29421,-0.47606 -0.92444,-0.86556 -1.4005,-0.86556 -0.47605,0 -0.62483,0.3895 -0.33061,0.86556 0.29422,0.47605 0.92444,0.86556 1.4005,0.86556 0.47606,0 0.62484,-0.38951 0.33061,-0.86556 z m 117.28335,-0.86556 c 0,-0.95211 -0.38951,-1.73112 -0.86556,-1.73112 -0.47605,0 -0.86555,0.77901 -0.86555,1.73112 0,0.95212 0.3895,1.73112 0.86555,1.73112 0.47605,0 0.86556,-0.779 0.86556,-1.73112 z m -126.8045,0 c -0.29423,-0.47606 -0.92444,-0.86556 -1.4005,-0.86556 -0.47607,0 -0.62484,0.3895 -0.33062,0.86556 0.29422,0.47606 0.92444,0.86556 1.4005,0.86556 0.47606,0 0.62484,-0.3895 0.33062,-0.86556 z m 6.4917,0.0926 c 0,-0.42512 -0.58425,-0.99714 -1.29834,-1.27117 -1.31936,-0.50629 -1.77266,0.41573 -0.7213,1.46709 0.82721,0.82722 2.01964,0.71154 2.01964,-0.19592 z m 9.95394,-0.0926 c -0.29423,-0.47606 -0.90147,-0.86556 -1.34943,-0.86556 -0.44796,0 -0.81447,0.3895 -0.81447,0.86556 0,0.47606 0.60724,0.86556 1.34942,0.86556 0.74218,0 1.1087,-0.3895 0.81448,-0.86556 z m 138.35335,-10.67615 c 18.8825,-9.87846 29.32084,-16.37343 31.51929,-19.612 1.07473,-1.5832 1.80298,-3.02962 1.61834,-3.21426 -0.18464,-0.18464 -2.03772,0.8128 -4.11795,2.21652 -2.08023,1.40374 -7.09301,3.92363 -11.13951,5.59976 -4.04649,1.67613 -15.14729,6.74077 -24.66845,11.25476 -16.02389,7.59693 -17.33301,8.38942 -17.6047,10.65708 l -0.2935,2.44985 -1.22295,-2.15085 -1.22297,-2.15085 0.36335,2.59668 c 0.19982,1.42818 0.39535,2.88471 0.4345,3.23675 0.14047,1.26315 14.3103,-4.59292 26.33455,-10.88344 z m -17.02121,4.91528 c -1.17783,-1.17784 -0.51384,-2.03108 2.95959,-3.8031 3.4547,-1.76245 5.97501,-1.76523 5.97501,-0.007 0,1.57058 -7.83351,4.91076 -8.9346,3.80966 z m 13.47878,-6.1186 c -2.02376,-0.7157 -1.08996,-1.88493 2.92311,-3.6601 4.83204,-2.13746 6.60258,-2.24247 6.22873,-0.36949 -0.30459,1.52605 -7.39864,4.64959 -9.15184,4.02959 z m 12.35474,-7.12966 c -0.49585,-0.8023 5.46298,-4.36098 7.30226,-4.36098 2.13295,0 0.6432,2.79233 -2.10161,3.93918 -3.52344,1.47219 -4.5024,1.55159 -5.20065,0.4218 z m -161.4474,17.27801 c 0,-0.47606 -0.4125,-0.86556 -0.91664,-0.86556 -0.50416,0 -0.67592,0.3895 -0.3817,0.86556 0.29423,0.47606 0.70671,0.86556 0.91664,0.86556 0.20995,0 0.3817,-0.3895 0.3817,-0.86556 z m 9.95393,0 c -0.29421,-0.47606 -0.92444,-0.86556 -1.4005,-0.86556 -0.47605,0 -0.62483,0.3895 -0.33061,0.86556 0.29421,0.47606 0.92444,0.86556 1.4005,0.86556 0.47605,0 0.62484,-0.3895 0.33061,-0.86556 z m 109.49331,0 c 0,-0.47606 -0.3895,-0.86556 -0.86556,-0.86556 -0.47606,0 -0.86555,0.3895 -0.86555,0.86556 0,0.47606 0.38949,0.86556 0.86555,0.86556 0.47606,0 0.86556,-0.3895 0.86556,-0.86556 z m -113.38832,-0.86556 c 0,-0.47606 -0.41249,-0.86556 -0.91665,-0.86556 -0.50416,0 -0.67592,0.3895 -0.3817,0.86556 0.29423,0.47606 0.70672,0.86556 0.91665,0.86556 0.20994,0 0.3817,-0.3895 0.3817,-0.86556 z m -18.17675,-0.86556 c 0,-0.47605 -0.38951,-0.86556 -0.86557,-0.86556 -0.47605,0 -0.86556,0.38951 -0.86556,0.86556 0,0.47605 0.38951,0.86556 0.86556,0.86556 0.47606,0 0.86557,-0.38951 0.86557,-0.86556 z m 8.65559,0 c -1.69509,-1.09545 -2.84092,-1.09545 -2.16389,0 0.29422,0.47605 1.19358,0.8596 1.99858,0.85231 1.26136,-0.0114 1.28421,-0.12922 0.16531,-0.85231 z m 6.05892,-0.86556 c 0,-0.47606 -0.3895,-0.86556 -0.86556,-0.86556 -0.47606,0 -0.86556,0.3895 -0.86556,0.86556 0,0.47606 0.3895,0.86556 0.86556,0.86556 0.47606,0 0.86556,-0.3895 0.86556,-0.86556 z m -18.17676,-0.64007 c 0,-1.42937 -3.08022,-8.00927 -3.75075,-8.01229 -0.39672,-0.002 -0.51941,0.48364 -0.27264,1.07871 0.24677,0.59507 0.92513,2.54259 1.50748,4.3278 0.91956,2.81897 2.51591,4.47234 2.51591,2.60578 z m 5.19336,-0.65827 c 0,-0.71408 -0.37728,-1.29833 -0.83839,-1.29833 -0.46112,0 -0.61419,0.58425 -0.34018,1.29833 0.27403,0.71409 0.6513,1.29834 0.8384,1.29834 0.18709,0 0.34017,-0.58425 0.34017,-1.29834 z m -10.35104,-4.91113 c -2.15633,-4.87472 -4.88644,-6.1588 -30.21025,-14.20902 -0.76991,-0.24474 -0.99492,0.0788 -0.64917,0.93358 0.29103,0.71949 0.76558,1.89241 1.05454,2.6065 0.28896,0.71409 0.13232,1.29833 -0.34811,1.29833 -0.48042,0 -1.30285,-1.23166 -1.82762,-2.73704 -1.21795,-3.49378 -2.1453,-2.6864 -1.18243,1.02946 0.7033,2.71412 1.30345,3.03783 17.57693,9.48104 9.26682,3.66904 16.95525,6.41232 17.08539,6.0962 0.13013,-0.31614 -0.54454,-2.3407 -1.49928,-4.49905 z m -17.3397,-4.00169 c -3.36618,-1.43058 -5.73403,-2.98554 -5.90598,-3.87845 -0.38105,-1.97862 0.8641,-1.82663 8.0627,0.9842 3.6016,1.4063 6.05893,2.87137 6.05893,3.61235 0,2.01796 -2.23794,1.82235 -8.21565,-0.7181 z m 24.38719,7.42694 c -0.62109,-0.62109 -1.02424,-0.67219 -1.02424,-0.12984 0,1.15534 1.02362,2.17896 1.60128,1.60129 0.24597,-0.24596 -0.0137,-0.9081 -0.57704,-1.47145 z m 9.36247,0.28015 c 0,-0.42513 -0.58425,-0.99715 -1.29833,-1.27118 -1.31937,-0.50628 -1.77266,0.41573 -0.7213,1.46709 0.8272,0.82721 2.01963,0.71155 2.01963,-0.19591 z m -11.09359,-4.60795 c -0.6211,-0.62109 -1.02424,-0.67219 -1.02424,-0.12983 0,1.15532 1.02362,2.17896 1.60128,1.60128 0.24597,-0.24596 -0.0137,-0.9081 -0.57704,-1.47145 z m -40.07061,-11.83412 c -0.53324,-1.52967 -1.17168,-2.57908 -1.41875,-2.33201 -0.24706,0.24706 0.0452,1.6427 0.64936,3.1014 1.42693,3.44489 2.02871,2.8431 0.76939,-0.76939 z m -2.39484,0.18514 c -1.02037,-1.75468 -1.26676,-1.19305 -0.43152,0.98357 0.29684,0.77355 0.72205,1.22412 0.9449,1.00127 0.22286,-0.22286 -0.008,-1.11604 -0.51338,-1.98484 z m -2.87568,-2.27284 c -0.54048,-1.761 -1.31205,-3.20184 -1.71463,-3.20184 -0.40257,0 -0.14247,1.41083 0.57801,3.13517 0.72047,1.72434 1.30995,3.34726 1.30995,3.60651 0,0.25923 0.18211,0.28922 0.40467,0.0666 0.22256,-0.22257 -0.0375,-1.84549 -0.578,-3.60649 z m -2.56845,-0.64934 c -0.50633,-1.45247 -1.08123,-2.48024 -1.27752,-2.28393 -0.42864,0.42864 1.20462,4.9248 1.78896,4.9248 0.22504,0 -0.005,-1.18839 -0.51144,-2.64087 z m -2.67782,-1.25415 c -0.51137,-1.6662 -1.24428,-3.02946 -1.62867,-3.02946 -0.3844,0 -0.30736,1.02987 0.17121,2.28861 1.77789,4.67618 2.82928,5.21063 1.45746,0.74085 z m -3.23599,-1.73112 c -0.57095,-1.73 -1.23285,-2.9507 -1.47088,-2.71266 -0.23802,0.23802 0.0343,1.84823 0.60531,3.57822 0.57095,1.72999 1.23285,2.95069 1.47088,2.71267 0.23803,-0.23804 -0.0343,-1.84824 -0.60531,-3.57823 z m -9.52117,-1.29834 c 0,-0.47606 -0.41248,-0.86557 -0.91663,-0.86557 -0.50415,0 -0.67592,0.38951 -0.3817,0.86557 0.29422,0.47605 0.70671,0.86556 0.91665,0.86556 0.20993,0 0.38168,-0.38951 0.38168,-0.86556 z m -3.14922,-1.29833 c -0.27402,-0.71409 -1.13818,-1.30076 -1.92034,-1.30369 -0.78217,-0.003 -2.54334,-0.59007 -3.91373,-1.30476 -2.30527,-1.20224 -2.40238,-1.19192 -1.29867,0.13797 1.08441,1.30664 5.48563,3.65196 7.00896,3.73493 0.34209,0.0186 0.3978,-0.55037 0.12378,-1.26445 z m 9.20815,0 c 0,-0.71409 -0.37728,-1.29835 -0.83839,-1.29835 -0.46113,0 -0.61421,0.58426 -0.34018,1.29835 0.27402,0.71408 0.6513,1.29833 0.83839,1.29833 0.1871,0 0.34018,-0.58425 0.34018,-1.29833 z m -2.59668,-0.86557 c 0,-0.71409 -0.37728,-1.29834 -0.83839,-1.29834 -0.46113,0 -0.61419,0.58425 -0.34018,1.29834 0.27402,0.71408 0.6513,1.29833 0.83839,1.29833 0.1871,0 0.34018,-0.58425 0.34018,-1.29833 z m 266.10237,-7.61541 c 1.17526,-3.90451 3.15972,-11.18888 4.40992,-16.18748 1.2502,-4.99861 3.97247,-15.12565 6.04949,-22.50455 2.07704,-7.3789 5.9551,-21.97405 8.61793,-32.43367 2.66283,-10.45963 5.97091,-22.72894 7.35129,-27.26514 2.86817,-9.42538 9.6281,-33.14007 12.67925,-44.48045 2.00547,-7.4538 2.69029,-16.44438 1.40104,-18.39307 -0.93627,-1.41515 -5.18242,-3.39681 -10.63763,-4.96456 -5.16028,-1.482982 -32.66757,-7.352015 -47.55801,-10.147108 -4.99861,-0.938289 -9.97467,-1.902803 -11.05791,-2.143351 -1.75721,-0.390223 -1.91812,-0.178403 -1.49266,1.964929 0.45992,2.31694 0.42436,2.302336 -1.00058,-0.410762 -0.81259,-1.547187 -1.79628,-2.813062 -2.18597,-2.813062 -0.9459,0 -0.89305,0.634548 0.22717,2.727711 0.51462,0.96159 0.72607,1.957959 0.46987,2.214156 -0.25619,0.256198 -1.13889,-0.945672 -1.96155,-2.670811 -1.94296,-4.074431 -3.21453,-4.085861 -1.51303,-0.01362 1.86378,4.460665 0.89543,4.577037 -1.5281,0.183638 -1.12869,-2.0461 -2.71995,-3.848784 -3.53612,-4.005967 -1.37705,-0.265192 -1.38815,-0.05648 -0.15412,2.896995 1.96818,4.710515 0.6819,4.802492 -1.39824,0.09998 -1.74712,-3.94967 -4.16137,-5.738824 -3.10041,-2.297666 1.48707,4.823195 1.28082,5.246633 -0.73779,1.514728 -2.09681,-3.876477 -4.85754,-5.9344 -3.48346,-2.596678 1.54853,3.761468 1.16404,4.62199 -0.58011,1.298344 -2.18134,-4.156763 -4.73915,-5.246067 -3.27486,-1.394694 1.33951,3.523182 0.21432,3.513296 -1.4672,-0.01285 -0.82265,-1.725139 -1.82681,-3.136623 -2.23145,-3.136623 -0.40464,0 -0.33249,0.753404 0.16031,1.674222 1.11673,2.086632 1.12676,2.653579 0.0469,2.653579 -0.46698,0 -1.10274,-1.010762 -1.41281,-2.246145 -0.40451,-1.61173 -0.76274,-1.924176 -1.26827,-1.10621 -0.55123,0.891907 -0.82839,0.817122 -1.27386,-0.343726 -0.31824,-0.829338 -2.50757,-2.059256 -4.96424,-2.788812 -6.00956,-1.784648 -6.96269,-1.724439 -5.84228,0.369069 0.49282,0.920827 0.8788,2.186703 0.85776,2.813073 -0.021,0.626369 -0.78501,-0.27434 -1.69771,-2.001569 -0.9127,-1.727239 -2.25874,-3.370392 -2.9912,-3.651464 -1.66116,-0.637444 -1.66262,-0.253675 -0.0111,2.939848 0.75696,1.463792 0.94166,2.553701 0.43278,2.553701 -0.48828,0 -0.88924,-0.292127 -0.89103,-0.649172 -0.006,-1.165825 -3.54021,-6.48262 -4.00224,-6.020586 -0.24748,0.247481 0.19173,1.690858 0.97602,3.207514 2.1799,4.215475 0.90143,4.076695 -1.43322,-0.155591 -1.1287,-2.04609 -2.75611,-3.855746 -3.61647,-4.021433 -1.48216,-0.285435 -1.48956,-0.15677 -0.14098,2.451099 0.78282,1.513798 1.227,2.94866 0.98708,3.188585 -0.23994,0.239916 -1.26958,-1.197276 -2.28812,-3.193773 -2.02811,-3.975454 -3.18831,-4.265501 -1.73113,-0.432788 1.45721,3.832724 0.29701,3.542667 -1.73111,-0.432778 -1.01854,-1.996496 -2.04818,-3.433688 -2.2881,-3.193773 -0.23992,0.239926 0.18674,1.640929 0.94816,3.113341 0.76141,1.472412 1.03215,2.677111 0.60161,2.677111 -0.43052,0 -1.26143,-1.155594 -1.84647,-2.567979 -1.18685,-2.865323 -3.22477,-4.894373 -4.06842,-4.050718 -0.30385,0.303854 -0.10803,1.527865 0.43514,2.720021 0.58672,1.2877 0.6485,2.167563 0.15222,2.167563 -0.45947,0 -1.405,-1.363261 -2.10117,-3.029466 -0.69619,-1.666195 -1.68415,-3.029457 -2.19548,-3.029457 -0.5293,0 -0.31145,0.943544 0.50587,2.190913 0.78954,1.205005 1.20386,2.4226 0.92068,2.705762 -0.28317,0.283171 -1.34815,-0.897487 -2.36664,-2.62369 -2.1627,-3.665511 -2.95471,-4.017838 -2.19092,-0.974641 0.71724,2.857709 -0.009,2.749258 -1.54978,-0.231669 -1.15068,-2.225183 -2.09109,-2.56701 -13.22201,-4.806021 -6.59078,-1.325739 -16.03257,-3.345777 -20.98176,-4.488962 -4.9492,-1.143195 -11.7117,-2.345879 -15.02776,-2.672632 -5.64693,-0.556438 -5.99824,-0.49036 -5.54068,1.042012 0.26868,0.899856 0.70694,2.804615 0.9739,4.232793 0.43796,2.34307 0.31537,2.258534 -1.2553,-0.865566 -0.95737,-1.904231 -1.5653,-2.683228 -1.35093,-1.731122 0.21435,0.952116 0.65979,2.860346 0.98986,4.240513 0.40412,1.689899 0.29796,2.322655 -0.32509,1.937581 -0.50886,-0.314488 -1.18162,-1.739244 -1.49501,-3.166108 -0.31339,-1.426865 -0.90161,-2.389241 -1.30716,-2.138595 -0.40553,0.250636 -0.14458,2.19538 0.57991,4.321644 1.61082,4.727478 1.04831,7.355234 -0.60182,2.811394 -0.64832,-1.785213 -1.53168,-3.24584 -1.96304,-3.24584 -0.43135,0 -0.54084,0.634395 -0.2433,1.409777 1.19663,3.118356 2.43363,9.07274 1.97923,9.527141 -0.26614,0.266141 -0.9628,-1.114553 -1.54812,-3.068196 -1.68769,-5.63301 -1.97455,-3.383644 -0.37955,2.976228 0.79543,3.171709 1.23484,5.978155 0.97645,6.236539 -0.56715,0.567158 -2.24934,-3.640205 -2.24934,-5.625895 0,-1.04766 -0.25267,-1.16243 -0.97309,-0.442012 -0.72042,0.720417 -0.72042,1.697915 0,3.764516 0.5352,1.535278 0.94145,3.609675 0.90279,4.609764 -0.0592,1.531385 -0.27005,1.40855 -1.33607,-0.778335 l -1.26577,-2.596678 0.46864,3.602962 c 0.25775,1.981633 0.7059,4.221267 0.9959,4.976972 0.28998,0.755706 0.1383,1.374001 -0.33707,1.374001 -0.47539,0 -1.12028,-1.019708 -1.43308,-2.266032 -0.3128,-1.246314 -0.77103,-2.063744 -1.01828,-1.816493 -0.24724,0.247252 0.16121,2.506169 0.90769,5.019817 1.55253,5.227943 1.63424,5.987183 0.64432,5.987183 -0.3921,0 -1.15334,-1.46062 -1.69164,-3.245846 -0.73628,-2.441779 -0.87705,-2.602595 -0.56821,-0.649162 1.31979,8.348158 1.37864,9.519948 0.41291,8.222808 -0.74606,-1.00208 -0.8574,-0.50833 -0.48793,2.1639 0.38778,2.80469 0.31168,3.09237 -0.40066,1.51473 -2.84134,-6.29271 -2.70252,-6.05934 -2.1886,-3.67863 1.17078,5.42355 1.44686,9.94667 0.52833,8.6556 -0.50804,-0.71409 -0.92968,-2.15173 -0.93696,-3.19477 -0.008,-1.04303 -0.40276,-2.13714 -0.87882,-2.43137 -1.14532,-0.70785 -1.10863,2.93941 0.0634,6.30147 0.51092,1.46563 0.77477,3.76339 0.58634,5.10613 -0.30406,2.16678 -0.42133,2.02547 -1.04263,-1.25645 -0.38504,-2.0338 -1.09919,-3.9445 -1.58702,-4.246 -0.58121,-0.35921 -0.67948,0.46797 -0.28503,2.39948 1.41112,6.91 1.62575,10.30491 0.6515,10.30491 -0.54076,0 -0.98917,-1.07113 -0.99646,-2.3803 -0.007,-1.30915 -0.42958,-2.96453 -0.93843,-3.67862 -0.69602,-0.97676 -0.7915,-0.54797 -0.38548,1.73112 1.4664,8.23108 1.56519,10.38671 0.476,10.38671 -0.7697,0 -0.94995,0.90283 -0.60484,3.02947 0.69595,4.28867 -0.70725,3.77219 -1.76369,-0.64918 -0.76945,-3.22023 -0.84167,-2.76183 -0.57963,3.67863 l 0.29934,7.35726 -1.24742,-4.76057 -1.24743,-4.76059 0.3239,7.14087 c 0.17813,3.92748 -0.0289,7.14087 -0.45983,7.14087 -0.43104,0 -0.78371,-1.14552 -0.78371,-2.54559 0,-1.40007 -0.39609,-2.79039 -0.88019,-3.08958 -0.57743,-0.35688 -0.71901,1.18859 -0.41161,4.4931 0.36856,3.96187 0.27533,4.59455 -0.43675,2.96392 -1.26896,-2.90589 -1.83546,-1.87821 -0.93108,1.68906 1.41472,5.58025 1.75228,8.60692 0.95991,8.60692 -0.435,0 -1.0617,-1.80584 -1.39267,-4.01297 -0.40377,-2.69245 -0.8309,-3.60358 -1.29806,-2.76883 -0.38293,0.68429 -0.31206,2.95407 0.15751,5.04397 0.46956,2.08989 0.70942,4.7965 0.53302,6.01467 -0.25902,1.7887 -0.45485,1.50706 -1.01772,-1.46376 -0.38333,-2.02324 -1.03669,-3.67863 -1.45191,-3.67863 -0.94327,0 -0.93867,0.54874 0.0363,4.3278 1.46643,5.68395 1.98457,9.99925 1.09123,9.08837 -0.46689,-0.47605 -1.05622,-1.64455 -1.30961,-2.59668 -0.25341,-0.95211 -0.24633,0.50852 0.0157,3.24585 0.27513,2.87394 0.1319,4.97697 -0.33894,4.97697 -0.44846,0 -0.66049,1.26589 -0.47118,2.81307 0.27154,2.21929 0.14101,2.53902 -0.6184,1.51473 -0.73337,-0.98916 -0.85129,-0.26777 -0.49516,3.02946 0.51393,4.75834 -0.28445,3.34355 -2.19799,-3.89502 -1.62031,-6.12929 -1.89572,-2.6207 -0.40935,5.21483 1.41716,7.47064 1.7013,11.0093 0.81264,10.12065 -0.29321,-0.29321 -0.86246,-1.81876 -1.26499,-3.3901 -0.55607,-2.17064 -0.6238,-1.71333 -0.28197,1.90358 0.34324,3.6317 0.22025,4.45269 -0.51863,3.46224 -0.74785,-1.00248 -0.83493,-0.60799 -0.38215,1.73112 0.32252,1.6662 0.63828,3.08067 0.70169,3.14326 0.0634,0.0626 2.51637,1.31727 5.45105,2.78818 5.80397,2.90906 35.05454,12.00115 81.22019,25.24606 34.94923,10.02691 57.39575,16.67385 62.75309,18.58265 2.14226,0.76328 8.56904,2.55402 14.28173,3.97942 16.7325,4.17501 23.4834,6.66454 26.95757,9.94111 2.38147,2.24601 3.01553,3.4409 2.70048,5.08901 -0.88555,4.63246 1.15043,0.88741 3.17597,-5.84198 z m -16.82116,-13.95774 c -9.72192,-2.3328 -17.34798,-4.50975 -46.30745,-13.21904 -11.90145,-3.57925 -25.72876,-7.6548 -30.72737,-9.05679 -4.9986,-1.40199 -14.5414,-4.25493 -21.20621,-6.33985 -6.66481,-2.08491 -14.62072,-4.42994 -17.67979,-5.21118 -3.05907,-0.78124 -14.93887,-4.5299 -26.39957,-8.33037 -11.4607,-3.80047 -22.78513,-7.3163 -25.16543,-7.81297 -8.92898,-1.86308 -9.54316,-3.35049 -6.14665,-14.88593 1.14189,-3.87814 3.03611,-11.14095 4.2094,-16.13955 2.10933,-8.98655 9.22122,-33.85691 18.56354,-64.91698 2.64901,-8.807071 6.07331,-20.540745 7.60956,-26.074826 1.53625,-5.534072 3.06404,-10.500228 3.39509,-11.035886 0.81517,-1.318951 5.82175,-1.177217 12.61759,0.357207 3.09439,0.69868 9.77423,2.045976 14.84413,2.994007 5.06988,0.948021 14.02843,3.114223 19.90787,4.813778 5.87944,1.699555 15.36392,4.046902 21.07661,5.216322 5.71269,1.169431 12.52897,2.702215 15.1473,3.406197 7.10444,1.910158 33.08559,8.064136 41.97964,9.943427 4.28452,0.905312 16.16433,3.632024 26.39957,6.059374 10.23524,2.42735 21.61566,4.95629 25.28981,5.61987 7.89973,1.42677 10.00925,2.41881 11.06866,5.20526 1.11194,2.92465 -0.84198,13.23772 -6.40597,33.81162 -4.55901,16.85776 -11.06361,41.41341 -17.86589,67.44584 -1.86591,7.14086 -4.599,18.119 -6.07352,24.39585 -2.77278,11.80341 -4.95372,15.92665 -8.35204,15.79019 -0.85583,-0.0343 -5.25633,-0.95037 -9.77888,-2.03557 z m 14.93597,-8.93784 c 1.30811,-5.11761 4.31707,-16.31579 6.68655,-24.88483 2.36948,-8.56905 6.88418,-25.51238 10.03267,-37.65186 3.14848,-12.13947 7.81886,-30.05655 10.37861,-39.81574 3.18925,-12.15919 4.66233,-19.4525 4.68025,-23.17229 0.031,-6.42974 0.35336,-6.19277 -12.52444,-9.20678 -4.76058,-1.1142 -15.27714,-3.59186 -23.37012,-5.50591 -8.09298,-1.91405 -17.63381,-3.92883 -21.20185,-4.477298 -3.56802,-0.548459 -10.96856,-2.11771 -16.44563,-3.487224 -5.47706,-1.369503 -18.67335,-4.504975 -29.32507,-6.967715 -10.65173,-2.462731 -26.42655,-6.394776 -35.05517,-8.737885 -15.8763,-4.311202 -29.14472,-7.036142 -39.59813,-8.132293 l -5.73298,-0.601161 -1.90744,5.498852 c -3.74005,10.782018 -8.05939,25.667684 -12.52094,43.150704 -2.49047,9.75919 -7.1136,25.34556 -10.27363,34.63639 -5.52362,16.24008 -10.63246,35.21132 -11.17768,41.50741 -0.25115,2.90014 -0.1105,3.05447 4.06766,4.46347 15.07131,5.08247 43.87564,14.10275 51.93358,16.26336 5.23664,1.40412 25.88024,7.48736 45.87467,13.5183 19.99443,6.03095 39.46953,11.85218 43.27798,12.93606 3.80847,1.08389 11.56432,3.39361 17.23525,5.13273 9.45654,2.90005 16.40053,4.47758 20.85286,4.7373 1.49909,0.0875 2.05751,-1.16211 4.113,-9.20359 z M 269.91652,198.7923 c -0.31737,-0.31736 -0.57704,-0.97952 -0.57704,-1.47144 0,-0.54236 0.40315,-0.49126 1.02424,0.12983 0.56335,0.56334 0.82301,1.22549 0.57704,1.47145 -0.24597,0.24597 -0.70687,0.18755 -1.02424,-0.12984 z m -3.02123,-6.99912 c -3.73725,-8.20215 -22.96304,-65.11338 -22.24067,-65.83574 0.82127,-0.82128 1.27602,0.3307 3.37741,8.55575 1.14691,4.48909 3.92036,12.83602 6.16323,18.54871 4.87913,12.42742 15.25686,42.15553 14.85594,42.55644 -0.15605,0.15605 -1.1262,-1.56527 -2.15591,-3.82516 z m 117.26904,-7.85123 c -1.25304,-2.79216 -3.22531,-7.59272 -4.38282,-10.6679 -1.15749,-3.07519 -4.81935,-11.60747 -8.13744,-18.96062 -5.61944,-12.45307 -11.35135,-26.94408 -12.64924,-31.9789 -1.1874,-4.60623 2.85713,4.11078 7.22886,15.58008 2.44968,6.42677 5.37982,13.63256 6.51142,16.01285 5.82973,12.26266 14.66936,34.12925 14.04804,34.75059 -0.1873,0.1873 -1.36578,-1.94395 -2.61882,-4.7361 z m -133.75874,-8.1591 c -5.24242,-12.97412 -7.77547,-21.58814 -5.75375,-19.5664 0.78157,0.78156 7.93589,22.37947 7.41322,22.37947 -0.28754,0 -1.0343,-1.26589 -1.65947,-2.81307 z m 94.46682,-19.02377 c -6.00221,-13.66483 -17.54043,-44.05658 -17.54043,-46.20159 0,-2.28554 3.05162,4.29002 5.5969,12.06009 1.62302,4.95464 4.98204,13.83151 7.46448,19.72639 6.53789,15.52499 12.04784,29.608 11.7145,29.94135 -0.15883,0.15883 -3.41478,-6.82798 -7.23545,-15.52624 z m 19.7458,4.4899 c -1.0449,-2.42892 -3.27261,-8.36015 -4.95047,-13.1805 -1.67785,-4.82038 -3.97306,-10.58461 -5.10045,-12.80941 -2.20597,-4.35326 -7.59783,-17.24362 -8.61945,-20.60658 -1.32537,-4.36275 1.14277,-0.80494 3.06472,4.4178 1.09865,2.98547 4.22718,10.49583 6.95228,16.68967 5.03383,11.44129 11.48553,28.97287 10.88365,29.57476 -0.18177,0.18176 -1.1854,-1.65681 -2.23028,-4.08574 z m -97.9439,-3.09007 c -0.54035,-1.37518 -2.25726,-6.78485 -3.81535,-12.02149 -1.55809,-5.23664 -5.55725,-16.53219 -8.88704,-25.10123 -7.10227,-18.27737 -7.64448,-19.8909 -6.43234,-19.14176 0.48957,0.30257 1.56639,2.39624 2.39294,4.65258 0.82654,2.25636 3.77847,10.06066 6.55985,17.34291 5.49147,14.37784 12.27823,35.65551 11.5917,36.34204 -0.235,0.23501 -0.8694,-0.69786 -1.40976,-2.07305 z m -2.56116,-31.18687 C 259.199,116.29306 251.59152,93.481184 253.11357,93.988535 c 0.50438,0.168123 1.77675,3.206603 2.82749,6.752175 2.00537,6.76681 9.32221,26.6193 10.8916,29.55174 0.50377,0.94132 0.71256,1.91485 0.46397,2.16345 -0.24857,0.24858 -1.68114,-2.21916 -3.18348,-5.48389 z m 14.05504,106.84658 c -1.45925,-1.45923 -1.29416,-4.97653 0.2616,-5.57354 1.94139,-0.74497 5.36072,0.34931 5.95841,1.90687 1.31662,3.43107 -3.57313,6.31356 -6.22001,3.66667 z m 4.23242,-1.21889 c 0.98055,-1.18148 0.91184,-1.57 -0.45431,-2.56894 -1.88687,-1.37972 -3.08567,-0.88589 -3.08567,1.2711 0,2.86578 1.71643,3.49508 3.53998,1.29784 z m -2.67442,-1.20467 c 0,-0.47606 0.38951,-0.86555 0.86556,-0.86555 0.47606,0 0.86557,0.38949 0.86557,0.86555 0,0.47606 -0.38951,0.86556 -0.86557,0.86556 -0.47605,0 -0.86556,-0.3895 -0.86556,-0.86556 z M 380.99809,98.181764 c -11.91056,-2.532816 -15.20595,-3.53279 -15.42714,-4.681335 -0.37452,-1.944716 -0.19145,-1.927495 17.11648,1.61033 15.36237,3.140142 18.65101,4.182461 17.75751,5.628181 -0.76481,1.23748 -2.95974,0.94885 -19.44685,-2.557176 z M 323.1416,84.848231 c -1.17645,-1.417525 -0.47122,-2.329482 1.80142,-2.329482 1.07536,0 1.55283,0.502739 1.37047,1.443003 -0.37255,1.920983 -1.94793,2.36126 -3.17189,0.886479 z M 272.36894,73.418892 c -8.89063,-1.647171 -24.1105,-5.613545 -25.04353,-6.526471 -1.95643,-1.914281 1.12579,-1.635396 14.37019,1.300252 16.66844,3.694585 19.947,4.670424 19.28582,5.740234 -0.58375,0.944531 -0.81417,0.930781 -8.61248,-0.514015 z M 191.11451,205.32004 c -0.29752,-1.48768 -0.54097,-3.62994 -0.54097,-4.76058 0,-3.47585 -1.38811,-2.28009 -2.37879,2.04917 -0.96786,4.22955 -0.48762,5.37232 2.2706,5.40304 0.87257,0.01 1.0458,-0.70852 0.64916,-2.69163 z m 0.70929,-8.06653 c -0.32587,-1.73705 -0.76561,-2.98516 -0.97719,-2.77357 -0.21158,0.21157 -0.11807,1.80591 0.20781,3.54295 0.32586,1.73705 0.7656,2.98516 0.97718,2.77357 0.21158,-0.21157 0.11807,-1.80591 -0.2078,-3.54295 z m 0.97547,-6.16884 c -0.31837,-1.26848 -0.77362,-2.11159 -1.01164,-1.87356 -0.23803,0.23802 -0.1723,1.47064 0.14608,2.73912 0.31837,1.26849 0.7736,2.11159 1.01163,1.87358 0.23803,-0.23804 0.1723,-1.47065 -0.14607,-2.73914 z m 3.26326,-10.13675 c -0.2841,-1.75077 -0.81977,-2.99582 -1.19038,-2.76677 -0.37059,0.22904 -0.25564,1.77898 0.25547,3.44431 1.16781,3.8051 1.61031,3.48441 0.93491,-0.67754 z m 14.41888,-51.25616 c 0,-1.19015 -0.33549,-2.1639 -0.74553,-2.1639 -0.41004,0 -0.55938,0.97375 -0.33187,2.1639 0.22751,1.19015 0.56299,2.1639 0.74554,2.1639 0.18252,0 0.33186,-0.97375 0.33186,-2.1639 z m -103.66795,73.58435 c -6.50035,-1.82899 -8.892029,-3.24733 -13.011115,-7.71601 -3.968668,-4.3055 -4.290455,-5.40007 -2.330351,-7.9268 1.220037,-1.57271 1.249178,-1.5282 0.455723,0.69614 -0.731549,2.05078 -0.489571,2.78415 1.76643,5.3536 4.188204,4.77009 9.441923,6.1214 23.739603,6.10603 10.68949,-0.0115 12.6154,-0.24103 16.33926,-1.9475 5.31154,-2.43402 5.62341,-2.4185 3.20154,0.15946 -5.12413,5.45439 -20.17082,8.08601 -30.16109,5.27508 z m 5.62528,-0.9675 c -0.28761,-0.28761 -1.03416,-0.31835 -1.65899,-0.0683 -0.69049,0.2763 -0.48538,0.48141 0.52294,0.52294 0.91245,0.0376 1.42367,-0.16699 1.13605,-0.45461 z m 10.38671,0 c -0.28761,-0.28761 -1.03416,-0.31835 -1.65898,-0.0683 -0.69049,0.2763 -0.48539,0.48141 0.52294,0.52294 0.91245,0.0376 1.42366,-0.16699 1.13604,-0.45461 z m -12.73659,-5.80121 c -4.4873,-1.53653 -9.22714,-8.93678 -10.357517,-16.1711 -1.095689,-7.01229 -0.286594,-8.03229 7.992077,-10.07525 4.82612,-1.19096 6.95702,-1.28614 12.11123,-0.54095 6.15865,0.89041 11.6099,2.51076 10.88513,3.23553 -0.20364,0.20363 -2.10779,-0.23879 -4.23146,-0.98316 -7.31007,-2.56222 -25.06743,-0.0713 -25.06743,3.51625 0,3.09806 17.5196,5.28155 25.04962,3.12196 3.72276,-1.06767 4.59806,-0.40499 1.2536,0.94908 -4.07113,1.64828 -16.57985,1.9091 -21.97426,0.45818 -2.61768,-0.70407 -4.93475,-1.10479 -5.14905,-0.89049 -0.743132,0.74313 1.75515,8.38719 3.57766,10.94667 2.10297,2.95334 7.72712,5.78838 11.52416,5.80912 7.62805,0.0416 13.40414,-3.935 15.15617,-10.4346 1.87488,-6.95532 2.36844,-7.71832 4.99282,-7.71832 1.34317,0 2.90953,0.46741 3.48079,1.03868 0.70542,0.70542 1.03867,0.73258 1.03867,0.0847 0,-0.5247 -1.26588,-1.42103 -2.81306,-1.99184 -1.54719,-0.57081 -2.33999,-1.22103 -1.76177,-1.44493 1.88013,-0.72804 5.72519,1.81955 6.55878,4.3456 1.2223,3.70393 -0.40458,6.24491 -5.62981,8.79302 -2.51732,1.22758 -3.79795,1.60362 -2.84584,0.83565 0.95213,-0.76797 1.63842,-1.74432 1.52512,-2.16964 -0.11331,-0.42532 0.30077,-0.57884 0.92017,-0.34115 0.6194,0.23768 1.87028,-0.45797 2.77972,-1.54588 0.90945,-1.08793 1.0991,-1.49116 0.42145,-0.89609 -1.97323,1.73276 -3.03461,1.24694 -1.34783,-0.61694 1.81592,-2.00655 1.20273,-4.36001 -1.13602,-4.36001 -2.25447,0 -3.38497,1.57395 -4.97414,6.92527 -1.37874,4.6427 -4.37591,8.05448 -8.89943,10.13051 -2.89408,1.3282 -9.18574,1.32347 -13.07955,-0.01 z m 5.81736,-35.50989 c -1.10815,-2.76093 -0.65703,-6.9418 1.18312,-10.96509 0.97982,-2.14226 2.12958,-5.45303 2.55502,-7.35727 0.67407,-3.01702 0.71845,-2.81054 0.34515,1.60576 -0.23561,2.78738 -0.87034,5.89379 -1.41051,6.90309 -0.54016,1.00931 -1.21934,3.98699 -1.50926,6.61707 -0.36095,3.27438 -0.72777,4.2821 -1.16352,3.19644 z"
                id="path230"
                inkscape:export-filename="./path230.svg"
                inkscape:export-xdpi="96"
                inkscape:export-ydpi="96"/>
    </g>
</svg>
