<?xml version="1.0" encoding="UTF-8" standalone="no"?>
<!-- Created with Inkscape (http://www.inkscape.org/) -->

<svg
        version="1.1"
        id="svg394"
        width="122.20301"
        height="69.709282"
        viewBox="0 0 122.20301 69.709282"
        sodipodi:docname="lol.png"
        xmlns:inkscape="http://www.inkscape.org/namespaces/inkscape"
        xmlns:sodipodi="http://sodipodi.sourceforge.net/DTD/sodipodi-0.dtd"
        xmlns="http://www.w3.org/2000/svg"
>
    <defs
            id="defs398"/>
    <sodipodi:namedview
            id="namedview396"
            pagecolor="#ffffff"
            bordercolor="#000000"
            borderopacity="0.25"
            inkscape:showpageshadow="2"
            inkscape:pageopacity="0.0"
            inkscape:pagecheckerboard="0"
            inkscape:deskcolor="#d1d1d1"
            showgrid="false"/>
    <g
            inkscape:groupmode="layer"
            inkscape:label="Image"
            id="g400"
            transform="translate(-12.218578,-79.117729)">
        <path
                style="fill:#000000;stroke-width:0.32"
                d="m 73.568804,145.86742 c -0.756061,-1.628 -4.537158,-9.90321 -8.402441,-18.38936 -3.865283,-8.48615 -7.099789,-15.42517 -7.187789,-15.42004 -0.088,0.005 -1.312,2.37542 -2.719999,5.2673 -1.408,2.89188 -2.639824,5.25889 -2.737386,5.26003 -0.09756,10e-4 -1.697968,-3.8851 -3.556461,-8.6361 l -3.379075,-8.63816 6.116461,-12.953683 c 3.364054,-7.124521 6.18846,-12.955526 6.27646,-12.957785 0.088,-0.0022 5.40569,11.65807 11.817085,25.911838 l 11.657084,25.91596 11.542915,-0.006 c 13.008222,-0.006 14.439312,-0.17146 18.086192,-2.08784 3.78335,-1.9881 6.62695,-5.20707 8.25375,-9.34329 0.7411,-1.88427 0.85292,-2.63799 0.86691,-5.84331 0.0133,-3.0402 -0.11222,-4.05124 -0.72178,-5.81523 -0.95423,-2.7614 -3.45948,-6.31056 -5.5844,-7.91135 -3.98219,-2.999941 -6.99692,-3.862428 -13.51776,-3.867292 l -4.480002,-0.0033 -3.19151,8.238612 c -1.75533,4.53124 -3.99925,10.30783 -4.98649,12.83687 l -1.794974,4.59826 -4.699069,-8.40868 c -2.678038,-4.79218 -4.629235,-8.62785 -4.536697,-8.91826 0.0893,-0.28027 2.446688,-5.549576 5.238627,-11.709576 l 5.076253,-11.2 9.72693,0.0093 c 9.038592,0.0086 9.912112,0.05966 12.343662,0.72087 12.3711,3.364087 21.27739,12.297498 24.4753,24.549826 0.84612,3.24178 1.13161,9.35813 0.60705,13.00542 -1.84301,12.8145 -11.31807,23.68573 -23.7815,27.28577 -4.44121,1.28281 -7.19481,1.46879 -21.746742,1.46879 H 74.94346 Z m -33.510229,2.3429 c 0,-0.16341 -5.046787,-12.72741 -11.215084,-27.92 -6.168294,-15.1926 -12.432295,-30.622017 -13.919998,-34.287601 -1.487704,-3.665587 -2.704916,-6.728192 -2.704916,-6.805792 0,-0.0776 3.401169,-0.102483 7.558153,-0.0553 l 7.558156,0.08579 3.282877,7.84 c 1.805584,4.312 6.606505,15.775333 10.668713,25.474083 l 7.385836,17.63409 -4.06687,9.16394 c -3.59551,8.10183 -4.546867,9.9579 -4.546867,8.87079 z"
                id="path404"
                inkscape:export-filename="path404.svg"
                inkscape:export-xdpi="96"
                inkscape:export-ydpi="96"/>
    </g>
</svg>
