<?xml version="1.0" encoding="UTF-8" standalone="no"?>
<!-- Created with Inkscape (http://www.inkscape.org/) -->

<svg
        version="1.1"
        id="svg32"
        width="511.64957"
        height="358.185"
        viewBox="0 0 511.64957 358.185"
        sodipodi:docname="menu.png"
        xmlns:inkscape="http://www.inkscape.org/namespaces/inkscape"
        xmlns:sodipodi="http://sodipodi.sourceforge.net/DTD/sodipodi-0.dtd"
        xmlns="http://www.w3.org/2000/svg"
>
    <defs
            id="defs36"/>
    <sodipodi:namedview
            id="namedview34"
            pagecolor="#ffffff"
            bordercolor="#000000"
            borderopacity="0.25"
            inkscape:showpageshadow="2"
            inkscape:pageopacity="0.0"
            inkscape:pagecheckerboard="0"
            inkscape:deskcolor="#d1d1d1"
            showgrid="false"/>
    <g
            inkscape:groupmode="layer"
            inkscape:label="Image"
            id="g38"
            transform="translate(-0.19694896,-76.809578)">
        <path
                style="fill:#000000"
                d="m 245.49272,432.64869 c -5.55531,-2.58698 -10.95612,-8.12503 -13.23954,-13.57596 -3.83817,-9.16242 -0.69481,-21.97097 7.01051,-28.56644 8.1022,-6.93518 0.24638,-6.56691 133.79207,-6.27214 L 493.5,384.5 l 4,2.16237 c 9.20732,4.97741 13.93846,12.71345 13.96685,22.83763 0.0165,5.87602 -0.44674,7.84368 -2.88489,12.25433 -1.59749,2.88988 -4.39978,6.39481 -6.22731,7.78874 -7.49125,5.71385 -1.29832,5.45777 -131.73038,5.44716 l -120.12427,-0.01 -5.00728,-2.33177 z M 21.5,281.07519 C 12.192196,279.47196 4.5552738,273.01272 1.5542762,264.20527 -2.5898301,252.04299 3.024954,238.68341 14.722658,232.87298 L 19.5,230.5 H 256 492.5 l 4.77734,2.37298 c 2.62754,1.30514 6.31562,4.1701 8.19573,6.36659 11.02163,12.8763 7.32604,31.55434 -7.82425,39.54486 L 492.5,281.5 259,281.63209 c -128.425,0.0726 -235.3,-0.17796 -237.5,-0.5569 z M 146.99353,127.07142 c -4.4736,-1.37109 -8.42805,-3.83119 -11.63158,-7.2361 -5.22587,-5.5544 -6.80702,-9.56823 -6.8288,-17.33532 -0.0165,-5.876019 0.44674,-7.843681 2.88489,-12.254329 3.26886,-5.913401 7.58803,-9.63089 13.69175,-11.784407 6.24182,-2.202243 343.5386,-2.202243 349.78042,0 6.10372,2.153517 10.42289,5.871006 13.69175,11.784407 2.43815,4.410648 2.90137,6.37831 2.88489,12.254329 -0.0284,10.12418 -4.75953,17.86022 -13.96685,22.83763 l -4,2.16237 -172,0.16981 c -94.6,0.0934 -173.12791,-0.17588 -174.50647,-0.59839 z"
                id="path200"/>
    </g>
</svg>
