<?xml version="1.0" standalone="no"?>
<!DOCTYPE svg PUBLIC "-//W3C//DTD SVG 20010904//EN"
        "http://www.w3.org/TR/2001/REC-SVG-20010904/DTD/svg10.dtd">
<svg version="1.0" xmlns="http://www.w3.org/2000/svg"
     width="976.000000pt" height="976.000000pt" viewBox="0 0 976.000000 976.000000"
     preserveAspectRatio="xMidYMid meet">
    <metadata>
        Created by potrace 1.14, written by Peter Selinger 2001-2017
    </metadata>
    <g transform="translate(0.000000,976.000000) scale(0.100000,-0.100000)"
       fill="#000000" stroke="none">
        <path d="M0 7656 c0 -6 65 -174 85 -221 7 -16 45 -111 85 -210 39 -99 78 -196
86 -215 26 -59 31 -73 64 -155 17 -44 35 -89 40 -100 5 -11 39 -94 76 -185
156 -390 216 -537 229 -565 7 -16 20 -48 28 -70 13 -34 107 -268 140 -345 6
-14 11 -27 12 -30 1 -3 9 -22 18 -44 9 -21 17 -41 17 -43 0 -3 7 -21 16 -41 9
-21 20 -46 25 -57 5 -11 37 -92 73 -180 35 -88 94 -234 131 -325 37 -91 75
-185 85 -210 27 -68 170 -421 185 -455 7 -16 30 -73 50 -125 20 -52 43 -108
50 -125 8 -16 32 -77 55 -135 24 -58 48 -118 55 -135 7 -16 46 -111 85 -210
39 -99 78 -193 85 -210 7 -16 25 -61 40 -100 15 -38 33 -83 41 -100 7 -16 24
-59 38 -95 29 -78 92 -233 112 -277 8 -17 14 -34 14 -38 0 -3 10 -27 21 -53
12 -25 22 -51 24 -57 1 -5 7 -23 13 -38 37 -88 52 -128 73 -182 13 -33 27 -64
31 -70 4 -5 8 -14 8 -21 0 -6 8 -29 17 -50 9 -22 16 -45 14 -51 -4 -26 19 -12
42 24 25 41 97 188 98 200 0 5 6 15 14 23 7 8 16 25 19 37 4 12 22 53 41 92
19 40 35 74 35 77 0 3 15 38 33 77 19 40 48 104 65 142 17 39 44 100 61 138
17 37 31 69 31 72 0 2 15 36 34 77 50 109 67 148 146 327 l72 164 -47 111
c-26 61 -59 138 -73 171 -13 33 -33 78 -43 101 -11 22 -19 43 -19 47 0 3 -11
30 -24 59 -13 29 -38 87 -54 128 -17 41 -39 93 -48 115 -10 22 -18 42 -19 45
-1 3 -9 22 -18 44 -9 21 -17 40 -17 42 0 2 -11 28 -25 58 -14 30 -25 57 -25
60 0 3 -11 29 -24 58 -33 74 -96 225 -96 232 0 3 -11 30 -25 61 -14 30 -36 80
-50 110 -14 31 -25 58 -25 61 0 3 -14 38 -31 77 -27 64 -64 153 -89 212 -4 11
-15 36 -23 55 -39 90 -252 601 -269 645 -11 28 -33 78 -49 113 -16 34 -29 65
-29 68 0 6 -124 306 -145 349 -7 17 -44 102 -80 190 -69 167 -104 250 -146
350 -5 11 -54 128 -109 259 -55 132 -102 242 -105 244 -7 7 -1205 14 -1205 8z"/>
        <path d="M3597 7530 c-26 -54 -56 -118 -68 -142 -11 -24 -24 -50 -28 -58 -5
-8 -35 -69 -67 -135 -31 -66 -75 -158 -97 -205 -23 -47 -42 -87 -42 -90 -1 -3
-22 -48 -47 -100 -25 -52 -69 -144 -98 -205 -29 -60 -70 -147 -91 -192 -21
-45 -39 -87 -39 -92 0 -6 -4 -11 -10 -11 -5 0 -9 -3 -8 -7 1 -9 -31 -81 -97
-218 -82 -170 -139 -290 -140 -295 0 -3 -22 -49 -48 -103 -26 -53 -47 -104
-47 -113 0 -8 9 -39 21 -67 12 -29 25 -61 29 -72 5 -11 22 -54 38 -95 16 -41
33 -84 37 -95 5 -11 9 -22 10 -25 3 -7 13 -34 62 -160 25 -63 48 -124 53 -135
4 -11 8 -23 8 -28 1 -4 8 -20 16 -36 9 -16 12 -31 9 -35 -4 -3 -1 -6 5 -6 7 0
12 -5 12 -11 0 -11 91 -248 126 -326 8 -18 21 -48 29 -67 8 -19 15 -37 15 -41
0 -3 11 -30 23 -58 13 -29 30 -67 38 -84 8 -18 16 -33 19 -33 3 0 23 35 45 77
22 43 54 103 72 135 18 32 32 61 32 63 1 13 264 532 276 544 12 13 21 -1 65
-95 28 -60 56 -116 61 -124 5 -8 12 -22 15 -30 8 -19 41 -91 94 -205 23 -50
51 -110 62 -135 12 -25 40 -85 63 -135 23 -49 84 -182 135 -295 51 -113 109
-241 130 -285 21 -44 47 -100 58 -125 11 -25 40 -90 65 -145 25 -55 66 -144
91 -198 25 -55 46 -100 46 -102 0 -2 18 -43 41 -92 56 -120 83 -180 171 -373
17 -36 40 -87 53 -115 13 -27 50 -108 83 -180 33 -71 76 -165 96 -208 l36 -78
1023 4 c562 2 1069 7 1127 10 135 8 237 16 275 21 92 13 125 18 172 27 29 6
55 10 58 11 2 0 37 9 77 19 40 11 83 22 95 25 87 18 308 108 468 189 188 96
296 167 475 309 81 65 293 273 350 344 19 24 40 49 45 55 6 7 34 44 63 82 28
39 56 75 60 81 5 5 15 21 22 35 7 13 16 26 19 29 20 17 197 340 186 340 -3 0
1 10 9 23 56 86 174 467 192 622 3 22 7 47 10 56 12 41 18 163 18 374 1 257
-9 410 -34 535 -5 25 -11 59 -14 75 -5 40 -16 86 -25 110 -4 11 -27 81 -51
155 -67 206 -156 396 -273 586 -66 107 -111 169 -204 284 -188 233 -457 459
-741 622 -215 124 -591 268 -787 303 -16 2 -41 7 -55 10 -65 13 -248 17 -896
19 l-702 3 -20 -46 c-11 -25 -57 -127 -102 -226 -92 -203 -101 -222 -160 -355
-24 -52 -47 -101 -53 -107 -5 -7 -7 -13 -4 -13 3 0 -8 -26 -24 -57 -16 -31
-29 -63 -29 -70 0 -7 -5 -13 -10 -13 -6 0 -9 -3 -8 -7 3 -7 -48 -125 -144
-331 -21 -46 -38 -85 -38 -87 0 -2 -13 -33 -30 -68 -16 -36 -30 -70 -30 -76 0
-6 -4 -11 -10 -11 -5 0 -10 -4 -10 -9 0 -5 -5 -22 -12 -38 -6 -15 -12 -30 -13
-33 0 -3 -13 -31 -28 -62 -104 -221 -103 -218 -76 -285 13 -32 31 -69 40 -83
9 -14 20 -36 24 -50 4 -14 11 -29 15 -35 4 -5 36 -64 70 -130 35 -66 82 -154
105 -195 24 -41 56 -100 72 -130 48 -88 84 -153 103 -185 22 -38 67 -119 92
-165 20 -38 63 -114 95 -170 11 -19 35 -62 53 -95 18 -33 36 -63 39 -68 8 -8
26 25 46 83 1 3 7 19 14 35 6 17 19 50 29 75 9 25 22 56 29 70 7 14 13 28 13
32 0 7 76 207 100 263 7 18 21 52 25 65 1 3 7 19 14 35 6 17 32 84 58 150 25
66 51 134 58 150 7 17 36 90 64 163 73 189 148 382 162 417 7 17 13 35 15 40
1 6 21 57 44 115 23 58 53 137 67 175 14 39 29 75 33 80 4 6 10 22 14 37 12
52 15 53 252 51 332 -2 557 -16 636 -39 10 -3 29 -7 43 -10 62 -11 207 -65
278 -103 101 -54 207 -122 207 -133 0 -4 7 -8 16 -8 16 0 234 -213 234 -229 0
-4 13 -24 30 -42 16 -19 30 -40 30 -46 0 -7 4 -13 9 -13 5 0 13 -9 16 -20 3
-11 12 -26 18 -33 28 -30 107 -191 135 -272 46 -135 54 -195 55 -435 1 -313
-17 -399 -135 -635 -197 -393 -615 -696 -1023 -740 -108 -12 -137 -14 -340
-21 -221 -7 -1573 -12 -1592 -6 -7 2 -13 8 -13 13 0 5 -11 32 -24 61 -13 29
-36 79 -50 111 -14 31 -37 81 -50 110 -14 28 -52 113 -84 187 -33 74 -106 236
-162 360 -56 124 -102 231 -103 238 0 6 -4 12 -8 12 -4 0 -11 10 -15 23 -6 19
-86 202 -157 357 -14 30 -36 80 -50 110 -28 64 -60 134 -92 205 -13 28 -32 70
-43 95 -48 110 -82 185 -177 395 -43 94 -92 204 -110 245 -31 71 -48 109 -131
288 -19 41 -34 75 -34 77 0 2 -17 41 -39 87 -21 45 -91 200 -156 343 -65 143
-123 271 -130 285 -7 14 -21 43 -30 65 -10 22 -30 66 -46 98 -15 31 -28 58
-28 60 1 2 -27 62 -110 240 -18 37 -35 67 -39 66 -4 0 -28 -44 -55 -99z"/>
    </g>
</svg>
